M48
; DRILL file {KiCad (5.1.9)-1} date 03/22/21 16:11:56
; FORMAT={-:-/ absolute / inch / decimal}
; #@! TF.CreationDate,2021-03-22T16:11:56+01:00
; #@! TF.GenerationSoftware,Kicad,Pcbnew,(5.1.9)-1
; #@! TF.FileFunction,Plated,1,2,PTH
FMAT,2
INCH
T1C0.0200
T2C0.0300
T3C0.0315
T4C0.0350
T5C0.0394
T6C0.0433
T7C0.0472
T8C0.0500
T9C0.0512
T10C0.0551
T11C0.0591
T12C0.0787
T13C0.0866
T14C0.1260
T15C0.1260
T16C0.1378
%
G90
G05
T1
X1.53Y-8.489
X1.53Y-8.556
X1.532Y-8.63
X1.534Y-8.693
X1.744Y-8.828
X1.8675Y-8.9275
X1.8675Y-9.055
X1.87Y-9.15
X1.87Y-10.175
X1.871Y-10.548
X1.881Y-10.995
X1.8925Y-10.2725
X1.8925Y-10.375
X1.895Y-9.25
X1.895Y-10.05
X1.94Y-8.1025
X1.9575Y-3.3025
X1.9575Y-3.825
X1.96Y-4.905
X1.97Y-8.025
X1.985Y-4.2525
X1.9875Y-5.0025
X2.0175Y-8.1525
X2.03Y-3.5
X2.0325Y-5.3525
X2.035Y-5.105
X2.045Y-8.0275
X2.095Y-10.225
X2.1225Y-8.1775
X2.1225Y-10.0725
X2.1425Y-8.1
X2.1675Y-6.0025
X2.185Y-3.925
X2.1925Y-7.0275
X2.199Y-10.999
X2.2075Y-3.05
X2.2075Y-5.7525
X2.235Y-4.0
X2.235Y-5.3525
X2.252Y-8.778
X2.27Y-9.877
X2.299Y-10.996
X2.31Y-3.955
X2.315Y-4.2
X2.3375Y-4.0525
X2.37Y-6.075
X2.3975Y-9.4
X2.41Y-1.905
X2.43Y-3.4
X2.435Y-3.0
X2.543Y-8.598
X2.5625Y-3.55
X2.61Y-4.2525
X2.645Y-8.0525
X2.69Y-4.05
X2.69Y-4.205
X2.695Y-8.1975
X2.705Y-10.994
X2.755Y-1.85
X2.7675Y-8.2
X2.769Y-8.782
X2.769Y-9.868
X2.785Y-5.8025
X2.795Y-10.996
X2.8075Y-3.3975
X2.8125Y-4.305
X2.82Y-8.05
X2.8325Y-4.7025
X2.8725Y-8.3
X2.8725Y-9.4025
X2.8875Y-5.855
X2.89Y-7.13
X2.9025Y-10.4675
X2.9075Y-1.85
X2.935Y-3.5
X2.935Y-5.2075
X2.9425Y-8.3
X2.9875Y-5.305
X2.9925Y-6.73
X3.0075Y-4.8025
X3.0125Y-4.35
X3.015Y-5.855
X3.0325Y-3.275
X3.035Y-5.405
X3.045Y-7.8525
X3.045Y-8.1975
X3.046Y-8.605
X3.0625Y-4.905
X3.0625Y-5.005
X3.07Y-6.8225
X3.0875Y-1.855
X3.1125Y-5.705
X3.12Y-7.125
X3.1325Y-4.1025
X3.135Y-5.605
X3.1625Y-3.05
X3.1625Y-3.9975
X3.17Y-7.2225
X3.1725Y-7.325
X3.1875Y-5.505
X3.204Y-10.994
X3.235Y-1.8525
X3.235Y-3.27
X3.263Y-9.87
X3.276Y-8.779
X3.29Y-4.5275
X3.295Y-6.4775
X3.296Y-10.993
X3.335Y-1.9975
X3.3375Y-3.2925
X3.3875Y-1.8525
X3.3925Y-5.955
X3.3975Y-9.4
X3.4425Y-3.605
X3.45Y-8.2525
X3.4625Y-3.2775
X3.5375Y-1.855
X3.5425Y-8.2
X3.548Y-8.603
X3.6375Y-5.25
X3.6575Y-3.4025
X3.67Y-7.9725
X3.6875Y-4.38
X3.705Y-10.993
X3.7125Y-1.855
X3.715Y-7.6275
X3.7175Y-7.7325
X3.72Y-8.15
X3.74Y-3.955
X3.7425Y-7.425
X3.7425Y-7.525
X3.75Y-7.13
X3.766Y-9.87
X3.7675Y-8.4475
X3.771Y-8.778
X3.791Y-10.994
X3.7925Y-5.155
X3.815Y-1.9275
X3.8425Y-7.97
X3.845Y-7.13
X3.87Y-9.4
X3.895Y-7.425
X3.895Y-8.4475
X3.9175Y-5.355
X3.9225Y-10.565
X3.94Y-3.8575
X3.94Y-5.7975
X3.9425Y-3.48
X3.945Y-7.575
X3.95Y-1.9225
X3.995Y-7.6775
X3.9975Y-5.455
X4.02Y-5.5575
X4.035Y-3.05
X4.0425Y-5.655
X4.095Y-3.05
X4.1425Y-4.4325
X4.1425Y-6.35
X4.1425Y-6.475
X4.1925Y-3.1525
X4.205Y-10.991
X4.2125Y-7.0775
X4.215Y-3.5525
X4.215Y-3.9575
X4.2175Y-4.455
X4.2175Y-7.1775
X4.24Y-6.5975
X4.2425Y-4.355
X4.2425Y-6.475
X4.245Y-4.7075
X4.25Y-7.93
X4.265Y-9.87
X4.2675Y-4.06
X4.27Y-5.3525
X4.27Y-8.778
X4.2725Y-5.835
X4.29Y-10.992
X4.2925Y-7.62
X4.315Y-6.3525
X4.315Y-6.675
X4.325Y-6.8075
X4.3325Y-4.005
X4.3325Y-4.2
X4.335Y-3.7
X4.3375Y-3.8975
X4.34Y-3.8
X4.34Y-6.525
X4.3425Y-3.155
X4.39Y-3.28
X4.39Y-4.8825
X4.3925Y-4.7325
X4.3925Y-6.0825
X4.3925Y-6.6525
X4.395Y-6.855
X4.3975Y-4.805
X4.3975Y-4.96
X4.3975Y-9.395
X4.41Y-4.6275
X4.415Y-6.55
X4.44Y-3.1525
X4.4425Y-7.0
X4.45Y-7.13
X4.45Y-7.43
X4.4575Y-4.455
X4.4675Y-5.81
X4.49Y-6.4975
X4.4975Y-5.605
X4.4975Y-5.88
X4.5225Y-5.98
X4.5425Y-6.6
X4.575Y-8.601
X4.615Y-6.3475
X4.708Y-10.994
X4.719Y-8.603
X4.765Y-3.1525
X4.765Y-9.873
X4.773Y-8.778
X4.798Y-10.994
X4.8175Y-6.5275
X4.825Y-8.5025
X4.9025Y-9.3975
X4.92Y-6.5525
X4.92Y-7.1
X4.92Y-7.2525
X4.9225Y-7.4775
X4.935Y-3.7
X4.935Y-3.8
X4.9375Y-3.6025
X4.94Y-3.1025
X4.95Y-4.901
X4.976Y-8.601
X4.99Y-5.625
X5.01Y-3.6025
X5.0475Y-8.35
X5.0675Y-6.6025
X5.0725Y-6.925
X5.0825Y-3.5975
X5.085Y-4.3
X5.0875Y-4.1975
X5.094Y-4.9
X5.115Y-3.0475
X5.1375Y-4.4225
X5.145Y-6.345
X5.1875Y-4.4975
X5.2125Y-4.7
X5.2125Y-4.8
X5.214Y-10.993
X5.2375Y-4.2975
X5.275Y-8.777
X5.275Y-9.87
X5.29Y-3.05
X5.29Y-3.9975
X5.297Y-10.993
X5.3175Y-4.4025
X5.32Y-6.925
X5.3375Y-3.8525
X5.345Y-5.7575
X5.345Y-5.9275
X5.3475Y-5.83
X5.395Y-6.9525
X5.3975Y-6.605
X5.4025Y-9.3725
X5.4046Y-10.64
X5.4175Y-6.8275
X5.4214Y-7.1064
X5.465Y-3.1025
X5.545Y-6.08
X5.552Y-8.599
X5.558Y-10.815
X5.5625Y-3.625
X5.5625Y-4.175
X5.5875Y-3.55
X5.5875Y-3.8
X5.5925Y-5.0025
X5.5975Y-5.2275
X5.615Y-6.08
X5.6175Y-4.3475
X5.62Y-5.48
X5.6375Y-3.9025
X5.64Y-3.15
X5.711Y-10.99
X5.772Y-9.871
X5.775Y-8.781
X5.7925Y-3.5775
X5.807Y-10.991
X5.8125Y-3.2
X5.845Y-4.95
X5.8725Y-7.68
X5.88Y-10.1725
X5.8825Y-10.4675
X5.8972Y-8.0508
X5.948Y-6.6034
X5.9756Y-9.7952
X5.9804Y-9.9194
X6.0125Y-4.6525
X6.015Y-4.725
X6.0225Y-7.6775
X6.0232Y-6.9804
X6.025Y-8.7522
X6.04Y-3.925
X6.051Y-7.5268
X6.1012Y-8.7512
X6.125Y-9.97
X6.1286Y-9.3998
X6.14Y-3.825
X6.1766Y-8.7488
X6.1784Y-10.2665
X6.2625Y-3.825
X6.2796Y-9.5718
X6.3254Y-9.1014
X6.3475Y-6.355
X6.348Y-8.349
X6.3725Y-4.8775
X6.4082Y-10.2698
X6.44Y-3.6975
X6.44Y-3.62
X6.4498Y-7.2506
X6.475Y-7.403
X6.49Y-4.957
X6.4982Y-7.5282
X6.5276Y-7.03
X6.5276Y-8.0014
X6.558Y-9.691
X6.572Y-5.479
X6.5766Y-7.2272
X6.58Y-8.7
X6.6012Y-7.0292
X6.6534Y-7.3788
X6.6725Y-4.875
X6.6979Y-5.48
X6.7425Y-4.7025
X6.745Y-6.08
X6.7675Y-4.85
X6.79Y-4.775
X6.8012Y-6.6018
X6.8038Y-8.7504
X6.82Y-5.6725
X6.8276Y-7.6774
X6.8342Y-9.8649
X6.84Y-5.85
X6.8425Y-6.105
X6.854Y-7.1256
X6.9Y-6.8775
X6.9262Y-10.17
X6.9758Y-6.8518
X7.0038Y-10.5162
X7.0344Y-10.218
X7.0468Y-6.5246
X7.0508Y-6.8284
X7.075Y-5.6975
X7.1068Y-8.4252
X7.1274Y-6.8018
X7.128Y-5.842
X7.1286Y-9.5206
X7.178Y-6.5474
X7.1975Y-5.375
X7.1975Y-5.4975
X7.201Y-6.752
X7.203Y-8.294
X7.2275Y-5.6275
X7.2325Y-10.7125
X7.274Y-7.6528
X7.275Y-3.6275
X7.277Y-7.0994
X7.2775Y-6.9225
X7.304Y-9.5936
X7.325Y-3.97
X7.3276Y-8.526
X7.345Y-3.5725
X7.382Y-9.5956
X7.405Y-6.13
X7.4266Y-7.0268
X7.4326Y-9.7636
X7.4336Y-9.4242
X7.47Y-3.9225
X7.4752Y-6.6256
X7.4794Y-8.4258
X7.5012Y-8.6772
X7.5044Y-7.5756
X7.5054Y-10.1698
X7.5292Y-9.0726
X7.534Y-8.9244
X7.547Y-6.105
X7.5508Y-6.6778
X7.5546Y-7.9758
X7.5548Y-9.3182
X7.595Y-5.6975
X7.6025Y-6.97
X7.65Y-4.075
X7.675Y-5.65
X7.6768Y-6.7276
X7.6775Y-5.85
X7.6975Y-3.7975
X7.725Y-6.97
X7.7325Y-9.5
X7.7565Y-8.351
X7.8Y-3.8525
X7.8225Y-4.4225
X7.855Y-4.13
X7.8724Y-4.0234
X7.8775Y-5.58
X7.9025Y-3.825
X7.905Y-9.19
X7.9225Y-3.55
X7.925Y-6.0
X7.96Y-10.83
X8.035Y-9.205
X8.035Y-9.4275
X8.05Y-10.83
X8.0756Y-7.0226
X8.1244Y-6.8984
X8.1292Y-7.2518
X8.1334Y-9.8642
X8.1346Y-9.7674
X8.1352Y-8.3526
X8.1475Y-4.425
X8.1525Y-5.905
X8.1586Y-10.42
X8.2475Y-3.25
X8.2519Y-3.7269
X8.2525Y-5.755
X8.2725Y-5.4475
X8.2725Y-5.945
X8.2775Y-6.3525
X8.355Y-9.095
X8.3775Y-3.6025
X8.38Y-9.7125
X8.4086Y-8.703
X8.4272Y-7.6254
X8.4288Y-9.8862
X8.438Y-2.399
X8.439Y-2.299
X8.4475Y-5.85
X8.45Y-6.0
X8.455Y-9.815
X8.455Y-10.61
X8.4775Y-6.33
X8.48Y-9.9625
X8.4825Y-3.95
X8.4825Y-10.51
X8.52Y-3.695
X8.52Y-3.7975
X8.5225Y-4.3
X8.525Y-6.5975
X8.5266Y-7.2982
X8.5268Y-7.4996
X8.5296Y-9.4226
X8.545Y-3.52
X8.6042Y-9.8924
X8.6222Y-6.5518
X8.664Y-2.173
X8.666Y-2.541
X8.677Y-7.1224
X8.7075Y-9.5
X8.71Y-8.305
X8.7475Y-3.995
X8.7536Y-7.2494
X8.775Y-6.5
X8.805Y-4.3525
X8.8296Y-9.4215
X8.8325Y-9.5
X8.84Y-2.173
X8.842Y-2.542
X8.8475Y-5.7
X8.85Y-5.3975
X8.85Y-5.555
X8.855Y-4.2525
X8.855Y-5.8025
X8.8775Y-4.7525
X8.8976Y-6.548
X8.9Y-3.525
X8.9268Y-7.3464
X8.934Y-8.9992
X8.9558Y-9.3226
X8.9564Y-9.1418
X8.9575Y-9.6125
X8.9778Y-7.0742
X8.9806Y-8.801
X8.9975Y-3.695
X9.0Y-3.6025
X9.0088Y-8.6484
X9.0268Y-3.099
X9.0312Y-7.9022
X9.0314Y-9.3166
X9.0554Y-8.474
X9.0575Y-3.9525
X9.0725Y-3.7925
X9.0788Y-7.0982
X9.1025Y-4.795
X9.1366Y-10.2956
X9.1525Y-3.5
X9.1525Y-4.4025
X9.1525Y-4.6
X9.155Y-5.1475
X9.1575Y-3.75
X9.2028Y-6.5192
X9.2062Y-9.8218
X9.2286Y-6.597
X9.2312Y-7.5998
X9.2312Y-9.6894
X9.27Y-3.245
X9.301Y-6.6448
X9.3028Y-7.5754
X9.325Y-4.5025
X9.3266Y-4.3984
X9.3275Y-3.5
X9.3275Y-3.7025
X9.3275Y-3.805
X9.3275Y-4.3
X9.33Y-3.5975
X9.33Y-3.9475
X9.33Y-5.1775
X9.33Y-5.3775
X9.33Y-5.475
X9.3325Y-4.2
X9.3325Y-5.275
X9.3325Y-5.6525
X9.3325Y-5.9975
X9.335Y-5.5775
X9.3818Y-7.5968
X9.4034Y-6.6692
X9.4302Y-7.5248
X9.4302Y-10.1464
X9.4332Y-8.9962
X9.4582Y-9.1454
X9.4764Y-8.8476
X9.4776Y-6.6532
X9.4794Y-9.742
X9.4816Y-7.5964
X9.5036Y-9.8508
X9.5056Y-9.95
X9.527Y-8.7498
X9.5274Y-9.6486
X9.529Y-8.2488
X9.5298Y-8.5486
X9.5324Y-7.504
X9.54Y-3.0475
X9.5534Y-6.6762
X9.56Y-9.1946
X9.565Y-2.825
X9.5689Y-7.918
X9.5725Y-5.175
X9.5725Y-5.2475
X9.5726Y-5.4252
X9.5728Y-5.3478
X9.5738Y-5.599
X9.5774Y-7.6476
X9.5775Y-5.0975
X9.5846Y-7.5746
X9.5876Y-8.9974
X9.5946Y-3.9986
X9.595Y-3.9
X9.595Y-4.07
X9.595Y-4.15
X9.595Y-4.2225
X9.6025Y-4.7975
X9.6048Y-7.5008
X9.6074Y-8.2004
X9.6196Y-4.299
X9.6196Y-4.5738
X9.62Y-3.675
X9.6218Y-4.3988
X9.6225Y-4.5
X9.6286Y-6.7196
X9.635Y-8.2974
X9.6368Y-9.0954
X9.6554Y-9.7168
X9.6675Y-3.1475
X9.677Y-5.6514
X9.695Y-3.6225
X9.7044Y-9.7864
X9.71Y-9.4716
X9.7116Y-9.5446
X9.721Y-2.565
X9.745Y-2.168
X9.7534Y-6.7448
X9.7975Y-5.0275
X9.8052Y-9.4424
X9.8208Y-3.1446
X9.829Y-8.0928
X9.829Y-8.361
X9.829Y-8.75
X9.8354Y-9.3444
X9.8475Y-4.6725
X9.8576Y-8.8446
X9.8734Y-4.7732
X9.875Y-5.2725
X9.92Y-3.72
X9.925Y-3.9225
X9.945Y-3.825
X9.9524Y-6.7772
X10.0225Y-4.025
X10.0272Y-6.7788
X10.0558Y-9.8894
X10.0568Y-8.996
X10.07Y-3.6475
X10.079Y-10.81
X10.08Y-10.3625
X10.083Y-9.497
X10.0892Y-9.794
X10.0926Y-10.6662
X10.095Y-2.5725
X10.0998Y-6.7764
X10.1Y-5.3262
X10.1034Y-10.1626
X10.122Y-8.509
X10.1292Y-4.149
X10.14Y-10.0942
X10.1602Y-9.1462
X10.1612Y-8.9968
X10.1975Y-5.3725
X10.2056Y-8.6938
X10.2524Y-4.8026
X10.2538Y-8.4428
X10.26Y-5.245
X10.277Y-5.4514
X10.2804Y-9.2978
X10.2812Y-9.6632
X10.2814Y-9.3978
X10.3006Y-5.974
X10.3014Y-6.0744
X10.325Y-4.6775
X10.3298Y-7.8214
X10.3575Y-10.115
X10.4Y-4.8212
X10.4496Y-7.8214
X10.4512Y-5.7708
X10.4562Y-5.3002
X10.4784Y-5.9724
X10.5075Y-3.55
X10.5336Y-3.6696
X10.5375Y-9.24
X10.5375Y-9.615
X10.5375Y-9.79
X10.5575Y-7.5925
X10.575Y-3.1446
X10.59Y-2.5475
X10.6046Y-2.8434
X10.6134Y-9.124
X10.6175Y-2.47
X10.6472Y-3.4444
X10.6825Y-5.825
X10.687Y-1.822
X10.6878Y-9.2212
X10.69Y-5.925
X10.695Y-2.4675
X10.7052Y-6.597
X10.7088Y-9.4172
X10.71Y-10.267
X10.7725Y-2.445
X10.775Y-3.665
X10.7816Y-6.5728
X10.807Y-6.647
X10.8278Y-4.6232
X10.842Y-1.823
X10.86Y-5.3725
X10.8766Y-4.4982
X10.8768Y-4.0714
X10.9296Y-6.497
X10.9558Y-6.5728
X10.9814Y-6.6744
X10.9972Y-3.5436
X10.999Y-1.823
X11.0054Y-6.4736
X11.0068Y-7.3738
X11.0102Y-10.0664
X11.0114Y-9.1476
X11.0374Y-10.1924
X11.0532Y-5.9224
X11.0532Y-9.2692
X11.0575Y-5.3675
X11.0604Y-8.947
X11.0612Y-9.0186
X11.0806Y-6.4706
X11.0858Y-9.8592
X11.0918Y-10.465
X11.122Y-1.968
X11.122Y-2.041
X11.124Y-2.563
X11.155Y-1.823
X11.156Y-6.4954
X11.181Y-10.9301
X11.2075Y-7.56
X11.2578Y-6.4922
X11.275Y-3.6425
X11.275Y-4.87
X11.2822Y-8.641
X11.2862Y-8.0956
X11.301Y-2.149
X11.301Y-2.216
X11.303Y-2.567
X11.311Y-1.822
X11.3132Y-8.1948
X11.3325Y-7.5375
X11.34Y-8.294
X11.3528Y-4.3218
X11.3536Y-4.819
X11.3546Y-7.8714
X11.3552Y-3.8216
X11.3566Y-7.7742
X11.357Y-4.723
X11.3572Y-7.6446
X11.3572Y-7.945
X11.3776Y-3.144
X11.3806Y-4.9928
X11.407Y-8.9575
X11.455Y-3.4675
X11.4594Y-6.4718
X11.467Y-1.822
X11.4776Y-5.173
X11.4824Y-7.698
X11.5028Y-4.1712
X11.5342Y-6.4698
X11.537Y-9.859
X11.554Y-8.585
X11.561Y-7.818
X11.6058Y-3.3622
X11.6062Y-7.9202
X11.6074Y-10.4166
X11.6096Y-9.8696
X11.6302Y-9.5462
X11.631Y-9.2912
X11.634Y-10.1916
X11.6352Y-8.1472
X11.6356Y-8.7466
X11.6358Y-9.4462
X11.6382Y-10.116
X11.6566Y-5.8754
X11.6584Y-8.9446
X11.6608Y-9.0968
X11.6812Y-3.3898
X11.6872Y-10.4166
X11.6874Y-10.5668
X11.6878Y-6.2198
X11.705Y-4.8716
X11.708Y-7.1974
X11.7108Y-6.4674
X11.7286Y-5.7774
X11.7324Y-5.0712
X11.7386Y-8.5626
X11.758Y-3.3876
X11.7816Y-5.9238
X11.8025Y-6.2725
X11.81Y-7.2
X11.8352Y-5.0714
X11.8606Y-9.6169
X11.879Y-4.9224
X11.8804Y-5.623
X11.9096Y-3.34
X11.91Y-7.2
X11.9102Y-8.571
X11.9125Y-7.8473
X11.94Y-10.211
X11.949Y-7.388
X11.9872Y-7.2416
X11.99Y-10.1175
X12.005Y-2.261
X12.005Y-2.319
X12.0075Y-3.87
X12.01Y-5.3675
X12.01Y-8.845
X12.0532Y-4.7238
X12.06Y-2.261
X12.06Y-2.319
X12.0775Y-5.3675
X12.0798Y-8.8744
X12.08Y-3.87
X12.081Y-6.5968
X12.108Y-9.9198
X12.1094Y-6.3678
X12.1266Y-4.7238
X12.133Y-8.5464
X12.1588Y-6.5942
X12.163Y-9.7836
X12.1652Y-8.6932
X12.1792Y-9.3986
X12.186Y-10.1154
X12.2086Y-10.467
X12.2112Y-10.3448
X12.2116Y-8.5426
X12.2334Y-9.2946
X12.2344Y-6.5968
X12.235Y-5.9466
X12.235Y-10.89
X12.2358Y-7.0214
X12.2362Y-6.1494
X12.237Y-4.2428
X12.237Y-8.193
X12.2375Y-7.2725
X12.2572Y-6.0516
X12.2582Y-5.4488
X12.2616Y-5.8248
X12.2622Y-5.5476
X12.2638Y-5.6488
X12.2638Y-10.6426
X12.2832Y-8.9976
X12.2852Y-8.8674
X12.3066Y-3.571
X12.31Y-8.621
X12.3106Y-7.024
X12.3114Y-10.8884
X12.3125Y-7.2975
X12.3278Y-3.495
X12.3336Y-8.246
X12.3556Y-8.3452
X12.3844Y-4.8406
X12.3878Y-8.4622
X12.41Y-7.375
X12.41Y-7.475
X12.4122Y-10.8668
X12.4858Y-10.8946
X12.5075Y-3.6425
X12.508Y-9.846
X12.51Y-6.12
X12.51Y-10.4875
X12.532Y-3.967
X12.534Y-4.059
X12.534Y-4.132
X12.534Y-6.3746
X12.5634Y-8.0966
X12.5832Y-8.2468
X12.5848Y-6.5982
X12.5848Y-7.1726
X12.5862Y-6.9222
X12.5876Y-9.246
X12.5882Y-9.5452
X12.6352Y-6.7492
X12.6354Y-6.5238
X12.6384Y-3.8446
X12.657Y-9.3954
X12.665Y-8.4944
X12.6828Y-6.8976
X12.685Y-3.6224
X12.7094Y-4.2226
X12.7096Y-8.9948
X12.7116Y-5.9476
X12.7144Y-8.8226
X12.7326Y-4.572
X12.7352Y-5.2976
X12.7375Y-4.8225
X12.7375Y-5.1225
X12.738Y-6.0216
X12.7412Y-9.9194
X12.7568Y-9.2456
X12.758Y-4.67
X12.759Y-3.4694
X12.76Y-6.4728
X12.7632Y-6.7484
X12.7634Y-5.223
X12.7652Y-6.6188
X12.7854Y-7.2226
X12.8082Y-8.1714
X12.8094Y-10.2682
X12.8096Y-5.397
X12.811Y-8.2744
X12.8118Y-9.5452
X12.8126Y-7.6438
X12.8132Y-7.122
X12.8134Y-6.9704
X12.8134Y-7.7466
X12.8612Y-6.7432
X12.8634Y-10.7156
X12.865Y-8.0458
X12.8858Y-5.497
X12.887Y-7.8914
X12.888Y-7.2186
X12.9086Y-9.069
X12.9106Y-10.3174
X12.9126Y-7.1394
X12.9348Y-9.4952
X12.9372Y-9.3412
X12.9574Y-6.6228
X12.9592Y-8.9436
X12.962Y-7.8986
X12.9622Y-7.6482
X12.9644Y-9.6932
X12.9648Y-6.7438
X12.9846Y-5.5964
X12.9876Y-9.2418
X12.9902Y-8.1912
X12.9906Y-6.5224
X13.0136Y-8.3908
X13.016Y-8.0936
X13.0328Y-4.5208
X13.0358Y-9.7178
X13.036Y-6.1998
X13.0362Y-5.9916
X13.0386Y-5.3714
X13.0626Y-6.7434
X13.09Y-7.2684
X13.1136Y-5.5464
X13.1136Y-9.7152
X13.1336Y-4.9466
X13.162Y-3.7444
X13.1632Y-9.1418
X13.164Y-9.0426
X13.1666Y-8.8438
X13.1866Y-7.2426
X13.2128Y-7.1146
X13.2158Y-7.7938
X13.2164Y-6.4204
X13.2354Y-6.3476
X13.2366Y-6.2702
X13.2384Y-6.7412
X13.2384Y-7.9456
X13.2414Y-7.644
X13.2606Y-5.6436
X13.2626Y-3.747
X13.265Y-8.44
X13.2872Y-5.02
X13.3102Y-5.7408
X13.318Y-9.989
X13.3374Y-4.6188
X13.36Y-5.8414
X13.3634Y-3.7428
X13.387Y-6.046
X13.387Y-7.0448
X13.4162Y-6.7452
X13.4194Y-6.32
X13.4396Y-6.2216
X13.4428Y-6.1446
X13.4606Y-7.0922
X13.4656Y-4.6134
X13.4886Y-7.0136
X13.4888Y-6.4962
X13.4888Y-8.2914
X13.5148Y-5.8438
X13.536Y-4.7416
X13.5388Y-7.7192
X13.5425Y-5.62
X13.5428Y-5.7452
X13.543Y-7.644
X13.5628Y-7.1422
X13.5636Y-4.4892
X13.5636Y-6.5218
X13.5648Y-9.4166
X13.565Y-8.9416
X13.5682Y-8.0408
X13.6136Y-6.9704
X13.615Y-9.0432
X13.6176Y-9.5414
X13.62Y-9.92
X13.6368Y-7.14
X13.6434Y-6.1712
X13.663Y-6.7692
X13.664Y-4.49
X13.6656Y-6.8706
X13.668Y-9.3656
X13.6694Y-6.0436
X13.6892Y-6.9684
X13.695Y-9.92
X13.7146Y-7.1698
X13.7162Y-8.9916
X13.718Y-9.067
X13.7416Y-9.2402
X13.7436Y-5.9198
X13.7442Y-9.1404
X13.767Y-9.4146
X13.7942Y-10.6616
X13.7944Y-5.8194
X13.813Y-8.7922
X13.815Y-9.5142
X13.8198Y-4.3926
X13.835Y-7.315
X13.858Y-10.051
X13.8618Y-10.5348
X13.8634Y-9.3164
X13.873Y-9.959
X13.8938Y-5.7938
X13.8956Y-7.7906
X13.915Y-9.6892
X13.9168Y-4.3672
X13.9176Y-10.0914
X13.9178Y-6.969
X13.9186Y-9.9158
X13.9454Y-8.192
X13.969Y-10.1666
X13.985Y-6.07
X14.03Y-4.3925
X14.03Y-4.7675
X14.0728Y-9.9124
X14.0982Y-7.6408
X14.1224Y-7.8428
X14.14Y-5.62
X14.171Y-8.341
X14.1914Y-8.641
X14.21Y-9.24
X14.2132Y-7.1182
X14.2184Y-10.4104
X14.221Y-10.3126
X14.2224Y-10.213
X14.2582Y-5.7688
X14.2662Y-6.1422
X14.2722Y-8.992
X14.285Y-7.1412
X14.324Y-7.286
X14.36Y-9.34
X14.4106Y-7.1708
X14.4426Y-8.489
X14.4484Y-8.7868
X14.4674Y-7.6418
X14.509Y-7.1418
X14.5196Y-8.8158
X14.5218Y-7.7414
X14.5386Y-5.8182
X14.5404Y-5.9194
X14.5418Y-5.7204
X14.5428Y-3.8158
X14.543Y-6.0186
X14.5914Y-3.741
X14.5932Y-6.9692
X14.5946Y-7.9912
X14.6418Y-8.7376
X14.645Y-8.9392
X14.689Y-4.4412
X14.6894Y-3.7384
X14.7406Y-7.1696
X14.7468Y-8.4906
X14.7658Y-6.9158
X14.7684Y-8.0878
X14.7718Y-8.2624
X14.7954Y-10.4622
X14.8238Y-7.941
X14.8478Y-7.8666
X14.8496Y-8.2412
X14.8712Y-7.7392
X14.8924Y-8.9934
X14.8944Y-9.14
X14.9178Y-3.7394
X14.9222Y-8.291
X14.9402Y-9.961
X14.944Y-7.1674
X14.971Y-9.711
X14.992Y-3.7362
X15.0128Y-4.6432
X15.0372Y-7.116
X15.08Y-5.56
X15.0888Y-7.1858
X15.09Y-9.3866
X15.113Y-4.5906
X15.1384Y-4.6904
X15.1388Y-4.7918
X15.1396Y-4.9652
X15.1406Y-4.8672
X15.1642Y-7.7398
X15.1656Y-9.466
X15.1664Y-9.686
X15.1912Y-8.1914
X15.192Y-8.641
X15.1926Y-5.2128
X15.1936Y-8.39
X15.1936Y-8.5412
X15.1936Y-8.7408
X15.2132Y-10.1572
X15.2146Y-8.2904
X15.2366Y-7.0908
X15.2396Y-8.0924
X15.2664Y-7.1682
X15.2684Y-7.991
X15.272Y-7.8906
X15.2888Y-8.192
X15.31Y-3.72
X15.3144Y-9.2648
X15.319Y-9.0392
X15.32Y-9.4114
X15.365Y-10.1574
X15.385Y-3.585
X15.4164Y-8.74
X15.4172Y-8.6418
X15.418Y-8.839
X15.4384Y-9.1878
X15.4398Y-9.8126
X15.4404Y-9.065
X15.442Y-7.1682
X15.4428Y-8.4906
X15.467Y-8.567
X15.4672Y-7.7934
X15.4708Y-9.6878
X15.4882Y-8.69
X15.4898Y-7.8906
X15.4925Y-7.6425
X15.5162Y-8.789
X15.5374Y-8.0916
X15.538Y-7.991
X15.5442Y-9.3906
X15.5668Y-7.218
X15.567Y-9.9654
X15.6194Y-9.7126
X15.641Y-7.2146
X15.6916Y-5.3116
X15.6932Y-7.6394
X15.82Y-2.76
X15.845Y-8.665
X15.89Y-5.19
X15.92Y-1.9825
X16.672Y-10.157
X16.753Y-10.157
X16.834Y-10.157
X16.9175Y-5.595
X16.92Y-6.845
X17.146Y-8.06
X17.222Y-8.061
T2
X4.762Y-2.5768
X4.762Y-2.6768
X4.762Y-2.7768
X4.9376Y-2.5768
X4.9376Y-2.6768
X4.9376Y-2.7768
X5.1154Y-2.5768
X5.1154Y-2.6768
X5.1154Y-2.7768
X5.2864Y-2.5768
X5.2864Y-2.6768
X5.2864Y-2.7768
X5.4642Y-2.5768
X5.4642Y-2.6768
X5.4642Y-2.7768
X5.6398Y-2.5768
X5.6398Y-2.6768
X5.6398Y-2.7768
X5.8136Y-2.5768
X5.8136Y-2.6768
X5.8136Y-2.7768
X6.385Y-2.96
X6.485Y-2.96
X6.585Y-2.96
X6.685Y-2.96
X7.635Y-2.96
X7.735Y-2.96
X7.835Y-2.96
X7.935Y-2.96
X8.42Y-2.57
X8.42Y-2.67
X8.42Y-2.77
X8.43Y-2.975
X8.43Y-3.075
X8.43Y-3.175
X8.5953Y-2.57
X8.5953Y-2.67
X8.5953Y-2.77
X8.605Y-2.975
X8.605Y-3.075
X8.605Y-3.175
X8.7706Y-2.57
X8.7706Y-2.67
X8.7706Y-2.77
X8.7762Y-2.9748
X8.7762Y-3.0748
X8.7762Y-3.1748
X8.9459Y-2.57
X8.9459Y-2.67
X8.9459Y-2.77
X9.1212Y-2.57
X9.1212Y-2.67
X9.1212Y-2.77
X9.2965Y-2.57
X9.2965Y-2.67
X9.2965Y-2.77
X9.4718Y-2.57
X9.4718Y-2.67
X9.4718Y-2.77
X9.6471Y-2.57
X9.6471Y-2.67
X9.6471Y-2.77
X9.8224Y-2.57
X9.8224Y-2.67
X9.8224Y-2.77
X9.9976Y-2.57
X9.9976Y-2.67
X9.9976Y-2.77
X10.1729Y-2.57
X10.1729Y-2.67
X10.1729Y-2.77
X10.3482Y-2.57
X10.3482Y-2.67
X10.3482Y-2.77
X10.5235Y-2.57
X10.5235Y-2.67
X10.5235Y-2.77
X10.6988Y-2.57
X10.6988Y-2.67
X10.6988Y-2.77
X10.8741Y-2.57
X10.8741Y-2.67
X10.8741Y-2.77
X11.0494Y-2.57
X11.0494Y-2.67
X11.0494Y-2.77
X11.0514Y-3.0212
X11.0514Y-3.1212
X11.0514Y-3.2212
X11.2247Y-2.57
X11.2247Y-2.67
X11.2247Y-2.77
X11.4Y-2.57
X11.4Y-2.67
X11.4Y-2.77
X16.07Y-5.292
X16.07Y-5.471
X16.07Y-5.635
X16.07Y-5.814
X16.07Y-5.992
X16.07Y-6.171
X16.07Y-6.343
X16.07Y-6.518
X16.07Y-6.693
X16.07Y-6.868
X16.07Y-7.043
X16.07Y-7.218
X16.07Y-7.393
X16.07Y-7.565
X16.07Y-7.96
X16.07Y-8.138
X16.07Y-8.3127
X16.07Y-8.4873
X16.07Y-8.8367
X16.07Y-9.0113
X16.07Y-9.186
X16.07Y-9.3607
X16.07Y-9.5353
X16.07Y-9.71
X16.07Y-9.887
X16.07Y-10.061
X16.17Y-5.292
X16.17Y-5.471
X16.17Y-5.635
X16.17Y-5.814
X16.17Y-5.992
X16.17Y-6.171
X16.17Y-6.343
X16.17Y-6.518
X16.17Y-6.693
X16.17Y-6.868
X16.17Y-7.043
X16.17Y-7.218
X16.17Y-7.393
X16.17Y-7.565
X16.17Y-7.96
X16.17Y-8.138
X16.17Y-8.3127
X16.17Y-8.4873
X16.17Y-8.8367
X16.17Y-9.0113
X16.17Y-9.186
X16.17Y-9.3607
X16.17Y-9.5353
X16.17Y-9.71
X16.17Y-9.887
X16.17Y-10.061
X16.27Y-5.292
X16.27Y-5.471
X16.27Y-5.635
X16.27Y-5.814
X16.27Y-5.992
X16.27Y-6.171
X16.27Y-6.343
X16.27Y-6.518
X16.27Y-6.693
X16.27Y-6.868
X16.27Y-7.043
X16.27Y-7.218
X16.27Y-7.393
X16.27Y-7.565
X16.27Y-7.96
X16.27Y-8.138
X16.27Y-8.3127
X16.27Y-8.4873
X16.27Y-8.8367
X16.27Y-9.0113
X16.27Y-9.186
X16.27Y-9.3607
X16.27Y-9.5353
X16.27Y-9.71
X16.27Y-9.887
X16.27Y-10.061
X16.444Y-8.4873
X16.445Y-9.3607
X16.447Y-8.3127
X16.447Y-8.8367
X16.447Y-9.0113
X16.447Y-9.71
X16.45Y-8.138
X16.451Y-9.186
X16.451Y-9.5353
X16.453Y-8.662
X16.544Y-8.4873
X16.545Y-9.3607
X16.547Y-8.3127
X16.547Y-8.8367
X16.547Y-9.0113
X16.547Y-9.71
X16.55Y-8.138
X16.551Y-9.186
X16.551Y-9.5353
X16.553Y-8.662
X16.644Y-8.4873
X16.645Y-9.3607
X16.647Y-8.3127
X16.647Y-8.8367
X16.647Y-9.0113
X16.647Y-9.71
X16.65Y-8.138
X16.651Y-9.186
X16.651Y-9.5353
X16.653Y-8.662
T3
X1.695Y-9.395
X1.695Y-9.495
X1.695Y-9.595
X1.695Y-9.695
X1.695Y-9.795
X1.695Y-9.895
X1.695Y-9.995
X1.695Y-10.095
X1.695Y-10.195
X1.83Y-3.0
X1.83Y-3.1
X1.83Y-3.2
X1.83Y-3.3
X1.83Y-3.4
X1.83Y-3.5
X1.83Y-3.6
X1.8321Y-2.8004
X1.84Y-4.05
X1.84Y-4.15
X1.84Y-4.25
X1.84Y-4.35
X1.84Y-4.45
X1.84Y-4.55
X1.84Y-4.65
X1.84Y-4.75
X1.84Y-4.85
X1.84Y-4.95
X1.84Y-5.05
X1.84Y-5.15
X1.84Y-5.25
X1.84Y-5.35
X1.84Y-5.45
X1.84Y-5.55
X1.84Y-5.65
X1.84Y-5.75
X1.84Y-5.85
X1.84Y-5.95
X1.8425Y-6.457
X1.845Y-6.63
X1.845Y-6.73
X1.845Y-6.83
X1.845Y-6.93
X1.845Y-7.03
X1.845Y-7.13
X1.845Y-7.23
X1.845Y-7.33
X1.845Y-7.43
X1.845Y-7.53
X1.845Y-7.63
X1.845Y-7.73
X1.845Y-7.83
X1.845Y-7.93
X1.9Y-2.605
X1.94Y-8.225
X1.94Y-8.37
X1.988Y-8.901
X1.988Y-9.001
X1.988Y-9.101
X1.988Y-9.201
X1.988Y-9.301
X1.988Y-9.401
X1.988Y-9.501
X1.988Y-9.601
X1.9901Y-9.752
X1.9931Y-8.7
X1.996Y-10.017
X1.996Y-10.117
X1.996Y-10.217
X1.996Y-10.317
X1.996Y-10.417
X1.996Y-10.517
X1.996Y-10.617
X1.996Y-10.717
X2.029Y-2.8004
X2.0394Y-6.457
X2.0969Y-2.605
X2.13Y-3.0
X2.13Y-3.1
X2.13Y-3.2
X2.13Y-3.3
X2.13Y-3.4
X2.13Y-3.5
X2.13Y-3.6
X2.187Y-9.752
X2.19Y-8.7
X2.2352Y-3.8242
X2.2831Y-2.02
X2.2831Y-2.2
X2.288Y-8.901
X2.288Y-9.001
X2.288Y-9.101
X2.288Y-9.201
X2.288Y-9.301
X2.288Y-9.401
X2.288Y-9.501
X2.288Y-9.601
X2.296Y-10.017
X2.296Y-10.117
X2.296Y-10.217
X2.296Y-10.317
X2.296Y-10.417
X2.296Y-10.517
X2.296Y-10.617
X2.296Y-10.717
X2.357Y-3.0748
X2.36Y-3.2
X2.4321Y-3.8242
X2.44Y-4.05
X2.44Y-4.15
X2.44Y-4.25
X2.44Y-4.35
X2.44Y-4.45
X2.44Y-4.55
X2.44Y-4.65
X2.44Y-4.75
X2.44Y-4.85
X2.44Y-4.95
X2.44Y-5.05
X2.44Y-5.15
X2.44Y-5.25
X2.44Y-5.35
X2.44Y-5.45
X2.44Y-5.55
X2.44Y-5.65
X2.44Y-5.75
X2.44Y-5.85
X2.44Y-5.95
X2.44Y-8.225
X2.44Y-8.37
X2.445Y-6.63
X2.445Y-6.73
X2.445Y-6.83
X2.445Y-6.93
X2.445Y-7.03
X2.445Y-7.13
X2.445Y-7.23
X2.445Y-7.33
X2.445Y-7.43
X2.445Y-7.53
X2.445Y-7.63
X2.445Y-7.73
X2.445Y-7.83
X2.445Y-7.93
X2.48Y-2.02
X2.48Y-2.2
X2.488Y-8.901
X2.488Y-9.001
X2.488Y-9.101
X2.488Y-9.201
X2.488Y-9.301
X2.488Y-9.401
X2.488Y-9.501
X2.488Y-9.601
X2.4991Y-9.751
X2.501Y-10.017
X2.501Y-10.117
X2.501Y-10.217
X2.501Y-10.317
X2.501Y-10.417
X2.501Y-10.517
X2.501Y-10.617
X2.501Y-10.717
X2.5011Y-8.7
X2.6887Y-4.4756
X2.69Y-4.655
X2.69Y-4.755
X2.69Y-4.855
X2.69Y-4.955
X2.69Y-5.055
X2.69Y-5.155
X2.69Y-5.255
X2.69Y-5.355
X2.69Y-5.455
X2.69Y-5.555
X2.69Y-5.655
X2.69Y-5.755
X2.69Y-5.855
X2.69Y-5.955
X2.6917Y-6.4526
X2.696Y-9.751
X2.6975Y-6.63
X2.6975Y-6.73
X2.6975Y-6.83
X2.6975Y-6.93
X2.6975Y-7.03
X2.6975Y-7.13
X2.6975Y-7.23
X2.6975Y-7.33
X2.6975Y-7.43
X2.6975Y-7.53
X2.6975Y-7.63
X2.6975Y-7.73
X2.6975Y-7.83
X2.6975Y-7.93
X2.698Y-8.7
X2.771Y-8.549
X2.788Y-8.901
X2.788Y-9.001
X2.788Y-9.101
X2.788Y-9.201
X2.788Y-9.301
X2.788Y-9.401
X2.788Y-9.501
X2.788Y-9.601
X2.801Y-10.017
X2.801Y-10.117
X2.801Y-10.217
X2.801Y-10.317
X2.801Y-10.417
X2.801Y-10.517
X2.801Y-10.617
X2.801Y-10.717
X2.8112Y-3.6006
X2.8112Y-4.1006
X2.857Y-3.0748
X2.86Y-3.2
X2.8856Y-4.4756
X2.8886Y-6.4526
X2.9679Y-8.549
X2.9832Y-3.2018
X2.9871Y-3.3986
X2.99Y-3.605
X2.99Y-3.705
X2.99Y-3.805
X2.99Y-3.905
X2.99Y-4.005
X2.99Y-4.105
X2.99Y-4.205
X2.993Y-8.901
X2.993Y-9.001
X2.993Y-9.101
X2.993Y-9.201
X2.993Y-9.301
X2.993Y-9.401
X2.993Y-9.501
X2.993Y-9.601
X2.9981Y-8.706
X3.001Y-10.017
X3.001Y-10.117
X3.001Y-10.217
X3.001Y-10.317
X3.001Y-10.417
X3.001Y-10.517
X3.001Y-10.617
X3.001Y-10.717
X3.0041Y-9.75
X3.184Y-3.3986
X3.195Y-8.706
X3.201Y-9.75
X3.29Y-3.605
X3.29Y-3.705
X3.29Y-3.805
X3.29Y-3.905
X3.29Y-4.005
X3.29Y-4.105
X3.29Y-4.205
X3.29Y-4.655
X3.29Y-4.755
X3.29Y-4.855
X3.29Y-4.955
X3.29Y-5.055
X3.29Y-5.155
X3.29Y-5.255
X3.29Y-5.355
X3.29Y-5.455
X3.29Y-5.555
X3.29Y-5.655
X3.29Y-5.755
X3.29Y-5.855
X3.29Y-5.955
X3.293Y-8.901
X3.293Y-9.001
X3.293Y-9.101
X3.293Y-9.201
X3.293Y-9.301
X3.293Y-9.401
X3.293Y-9.501
X3.293Y-9.601
X3.2975Y-6.63
X3.2975Y-6.73
X3.2975Y-6.83
X3.2975Y-6.93
X3.2975Y-7.03
X3.2975Y-7.13
X3.2975Y-7.23
X3.2975Y-7.33
X3.2975Y-7.43
X3.2975Y-7.53
X3.2975Y-7.63
X3.2975Y-7.73
X3.2975Y-7.83
X3.2975Y-7.93
X3.301Y-10.017
X3.301Y-10.117
X3.301Y-10.217
X3.301Y-10.317
X3.301Y-10.417
X3.301Y-10.517
X3.301Y-10.617
X3.301Y-10.717
X3.315Y-6.16
X3.315Y-6.3569
X3.4832Y-3.2018
X3.493Y-8.901
X3.493Y-9.001
X3.493Y-9.101
X3.493Y-9.201
X3.493Y-9.301
X3.493Y-9.401
X3.493Y-9.501
X3.493Y-9.601
X3.506Y-10.017
X3.506Y-10.117
X3.506Y-10.217
X3.506Y-10.317
X3.506Y-10.417
X3.506Y-10.517
X3.506Y-10.617
X3.506Y-10.717
X3.5101Y-8.706
X3.5111Y-9.752
X3.5364Y-3.5056
X3.5364Y-3.6056
X3.5364Y-3.7056
X3.5364Y-3.8056
X3.5364Y-3.9056
X3.5364Y-4.0056
X3.5364Y-4.1056
X3.5364Y-4.2056
X3.5391Y-4.475
X3.5431Y-6.45
X3.545Y-4.655
X3.545Y-4.755
X3.545Y-4.855
X3.545Y-4.955
X3.545Y-5.055
X3.545Y-5.155
X3.545Y-5.255
X3.545Y-5.355
X3.545Y-5.455
X3.545Y-5.555
X3.545Y-5.655
X3.545Y-5.755
X3.545Y-5.855
X3.545Y-5.955
X3.545Y-6.63
X3.545Y-6.73
X3.545Y-6.83
X3.545Y-6.93
X3.545Y-7.03
X3.545Y-7.13
X3.545Y-7.23
X3.545Y-7.33
X3.545Y-7.43
X3.545Y-7.53
X3.545Y-7.63
X3.545Y-7.73
X3.545Y-7.83
X3.545Y-7.93
X3.707Y-8.706
X3.708Y-9.752
X3.736Y-4.475
X3.74Y-6.45
X3.7554Y-1.9982
X3.793Y-8.901
X3.793Y-9.001
X3.793Y-9.101
X3.793Y-9.201
X3.793Y-9.301
X3.793Y-9.401
X3.793Y-9.501
X3.793Y-9.601
X3.806Y-10.017
X3.806Y-10.117
X3.806Y-10.217
X3.806Y-10.317
X3.806Y-10.417
X3.806Y-10.517
X3.806Y-10.617
X3.806Y-10.717
X3.839Y-3.605
X3.839Y-3.705
X3.839Y-3.805
X3.839Y-3.905
X3.839Y-4.005
X3.839Y-4.105
X3.839Y-4.205
X3.8431Y-3.403
X3.9523Y-1.9982
X3.998Y-8.901
X3.998Y-9.001
X3.998Y-9.101
X3.998Y-9.201
X3.998Y-9.301
X3.998Y-9.401
X3.998Y-9.501
X3.998Y-9.601
X4.0Y-10.017
X4.0Y-10.117
X4.0Y-10.217
X4.0Y-10.317
X4.0Y-10.417
X4.0Y-10.517
X4.0Y-10.617
X4.0Y-10.717
X4.0001Y-8.706
X4.0001Y-9.748
X4.04Y-3.403
X4.13Y-2.605
X4.139Y-3.605
X4.139Y-3.705
X4.139Y-3.805
X4.139Y-3.905
X4.139Y-4.005
X4.139Y-4.105
X4.139Y-4.205
X4.145Y-4.655
X4.145Y-4.755
X4.145Y-4.855
X4.145Y-4.955
X4.145Y-5.055
X4.145Y-5.155
X4.145Y-5.255
X4.145Y-5.355
X4.145Y-5.455
X4.145Y-5.555
X4.145Y-5.655
X4.145Y-5.755
X4.145Y-5.855
X4.145Y-5.955
X4.145Y-6.63
X4.145Y-6.73
X4.145Y-6.83
X4.145Y-6.93
X4.145Y-7.03
X4.145Y-7.13
X4.145Y-7.23
X4.145Y-7.33
X4.145Y-7.43
X4.145Y-7.53
X4.145Y-7.63
X4.145Y-7.73
X4.145Y-7.83
X4.145Y-7.93
X4.197Y-8.706
X4.197Y-9.748
X4.298Y-8.901
X4.298Y-9.001
X4.298Y-9.101
X4.298Y-9.201
X4.298Y-9.301
X4.298Y-9.401
X4.298Y-9.501
X4.298Y-9.601
X4.3Y-10.017
X4.3Y-10.117
X4.3Y-10.217
X4.3Y-10.317
X4.3Y-10.417
X4.3Y-10.517
X4.3Y-10.617
X4.3Y-10.717
X4.3269Y-2.605
X4.395Y-5.06
X4.395Y-5.16
X4.395Y-5.26
X4.395Y-5.36
X4.395Y-5.46
X4.395Y-5.56
X4.395Y-5.66
X4.395Y-5.76
X4.395Y-5.86
X4.395Y-5.96
X4.493Y-8.901
X4.493Y-9.001
X4.493Y-9.101
X4.493Y-9.201
X4.493Y-9.301
X4.493Y-9.401
X4.493Y-9.501
X4.493Y-9.601
X4.4991Y-8.706
X4.5001Y-9.756
X4.506Y-10.017
X4.506Y-10.117
X4.506Y-10.217
X4.506Y-10.317
X4.506Y-10.417
X4.506Y-10.517
X4.506Y-10.617
X4.506Y-10.717
X4.5155Y-6.828
X4.525Y-7.032
X4.525Y-7.132
X4.525Y-7.232
X4.525Y-7.332
X4.525Y-7.432
X4.525Y-7.532
X4.525Y-7.632
X4.525Y-7.732
X4.525Y-7.832
X4.525Y-7.932
X4.696Y-8.706
X4.697Y-9.756
X4.7124Y-6.828
X4.793Y-8.901
X4.793Y-9.001
X4.793Y-9.101
X4.793Y-9.201
X4.793Y-9.301
X4.793Y-9.401
X4.793Y-9.501
X4.793Y-9.601
X4.806Y-10.017
X4.806Y-10.117
X4.806Y-10.217
X4.806Y-10.317
X4.806Y-10.417
X4.806Y-10.517
X4.806Y-10.617
X4.806Y-10.717
X4.825Y-7.032
X4.825Y-7.132
X4.825Y-7.232
X4.825Y-7.332
X4.825Y-7.432
X4.825Y-7.532
X4.825Y-7.632
X4.825Y-7.732
X4.825Y-7.832
X4.825Y-7.932
X4.87Y-3.55
X4.87Y-3.65
X4.87Y-3.75
X4.87Y-3.85
X4.87Y-3.95
X4.87Y-4.05
X4.87Y-4.15
X4.87Y-4.25
X4.87Y-4.35
X4.87Y-4.45
X4.87Y-4.55
X4.87Y-4.65
X4.87Y-4.75
X4.87Y-4.85
X4.87Y-4.95
X4.87Y-5.05
X4.87Y-5.15
X4.87Y-5.25
X4.87Y-5.35
X4.87Y-5.45
X4.87Y-5.55
X4.87Y-5.65
X4.87Y-5.75
X4.87Y-5.85
X4.87Y-6.055
X4.9961Y-9.753
X4.999Y-8.901
X4.999Y-9.001
X4.999Y-9.101
X4.999Y-9.201
X4.999Y-9.301
X4.999Y-9.401
X4.999Y-9.501
X4.999Y-9.601
X5.006Y-10.017
X5.006Y-10.117
X5.006Y-10.217
X5.006Y-10.317
X5.006Y-10.417
X5.006Y-10.517
X5.006Y-10.617
X5.006Y-10.717
X5.0081Y-8.709
X5.0669Y-6.055
X5.074Y-7.432
X5.074Y-7.932
X5.193Y-9.753
X5.205Y-8.709
X5.225Y-7.432
X5.225Y-7.932
X5.299Y-8.901
X5.299Y-9.001
X5.299Y-9.101
X5.299Y-9.201
X5.299Y-9.301
X5.299Y-9.401
X5.299Y-9.501
X5.299Y-9.601
X5.306Y-10.017
X5.306Y-10.117
X5.306Y-10.217
X5.306Y-10.317
X5.306Y-10.417
X5.306Y-10.517
X5.306Y-10.617
X5.306Y-10.717
X5.47Y-3.55
X5.47Y-3.65
X5.47Y-3.75
X5.47Y-3.85
X5.47Y-3.95
X5.47Y-4.05
X5.47Y-4.15
X5.47Y-4.25
X5.47Y-4.35
X5.47Y-4.45
X5.47Y-4.55
X5.47Y-4.65
X5.47Y-4.75
X5.47Y-4.85
X5.47Y-4.95
X5.47Y-5.05
X5.47Y-5.15
X5.47Y-5.25
X5.47Y-5.35
X5.47Y-5.45
X5.47Y-5.55
X5.47Y-5.65
X5.47Y-5.75
X5.47Y-5.85
X5.501Y-8.901
X5.501Y-9.001
X5.501Y-9.101
X5.501Y-9.201
X5.501Y-9.301
X5.501Y-9.401
X5.501Y-9.501
X5.501Y-9.601
X5.5041Y-8.706
X5.506Y-10.017
X5.506Y-10.117
X5.506Y-10.217
X5.506Y-10.317
X5.506Y-10.417
X5.506Y-10.517
X5.506Y-10.617
X5.506Y-10.717
X5.5071Y-9.748
X5.5559Y-10.913
X5.6175Y-4.4525
X5.6175Y-4.6494
X5.6925Y-3.5781
X5.6925Y-3.775
X5.701Y-8.706
X5.704Y-9.748
X5.7721Y-8.553
X5.801Y-8.901
X5.801Y-9.001
X5.801Y-9.101
X5.801Y-9.201
X5.801Y-9.301
X5.801Y-9.401
X5.801Y-9.501
X5.801Y-9.601
X5.806Y-10.017
X5.806Y-10.117
X5.806Y-10.217
X5.806Y-10.317
X5.806Y-10.417
X5.806Y-10.517
X5.806Y-10.617
X5.806Y-10.717
X5.8431Y-3.775
X5.845Y-3.925
X5.845Y-4.025
X5.845Y-4.125
X5.845Y-4.225
X5.845Y-4.325
X5.845Y-4.425
X5.845Y-4.525
X5.845Y-4.625
X5.845Y-4.725
X5.845Y-4.825
X5.845Y-5.13
X5.845Y-5.23
X5.845Y-5.33
X5.845Y-5.43
X5.845Y-5.53
X5.845Y-5.63
X5.845Y-5.73
X5.845Y-5.83
X5.845Y-5.93
X5.845Y-6.075
X5.94Y-3.575
X5.969Y-8.553
X6.04Y-3.575
X6.04Y-3.775
X6.0419Y-6.075
X6.048Y-10.913
X6.055Y-8.901
X6.055Y-9.001
X6.055Y-9.101
X6.055Y-9.201
X6.055Y-9.301
X6.055Y-9.401
X6.055Y-9.501
X6.055Y-9.601
X6.0558Y-10.017
X6.0558Y-10.117
X6.0558Y-10.217
X6.0558Y-10.317
X6.0558Y-10.417
X6.0558Y-10.517
X6.0558Y-10.617
X6.0558Y-10.717
X6.14Y-3.575
X6.145Y-3.925
X6.145Y-4.025
X6.145Y-4.125
X6.145Y-4.225
X6.145Y-4.325
X6.145Y-4.425
X6.145Y-4.525
X6.145Y-4.625
X6.145Y-4.725
X6.145Y-4.825
X6.145Y-5.13
X6.145Y-5.23
X6.145Y-5.33
X6.145Y-5.43
X6.145Y-5.53
X6.145Y-5.63
X6.145Y-5.73
X6.145Y-5.83
X6.145Y-5.93
X6.2675Y-4.4275
X6.2675Y-4.6244
X6.302Y-8.996
X6.302Y-9.496
X6.303Y-10.113
X6.303Y-10.613
X6.3175Y-3.7025
X6.318Y-3.574
X6.445Y-5.13
X6.445Y-5.23
X6.445Y-5.33
X6.445Y-5.43
X6.445Y-5.53
X6.445Y-5.63
X6.445Y-5.73
X6.445Y-5.83
X6.445Y-5.93
X6.445Y-6.075
X6.465Y-3.905
X6.465Y-4.505
X6.4675Y-4.725
X6.475Y-8.895
X6.475Y-8.995
X6.475Y-9.095
X6.475Y-9.195
X6.475Y-9.295
X6.475Y-9.395
X6.475Y-9.495
X6.475Y-9.595
X6.475Y-10.02
X6.475Y-10.12
X6.475Y-10.22
X6.475Y-10.32
X6.475Y-10.42
X6.475Y-10.52
X6.475Y-10.62
X6.475Y-10.72
X6.4781Y-8.698
X6.4801Y-9.795
X6.6419Y-6.075
X6.6644Y-4.725
X6.675Y-8.698
X6.677Y-9.795
X6.745Y-5.13
X6.745Y-5.23
X6.745Y-5.33
X6.745Y-5.43
X6.745Y-5.53
X6.745Y-5.63
X6.745Y-5.73
X6.745Y-5.83
X6.745Y-5.93
X6.765Y-3.905
X6.765Y-4.505
X6.775Y-8.895
X6.775Y-8.995
X6.775Y-9.095
X6.775Y-9.195
X6.775Y-9.295
X6.775Y-9.395
X6.775Y-9.495
X6.775Y-9.595
X6.775Y-10.02
X6.775Y-10.12
X6.775Y-10.22
X6.775Y-10.32
X6.775Y-10.42
X6.775Y-10.52
X6.775Y-10.62
X6.775Y-10.72
X6.8175Y-3.7025
X6.818Y-3.574
X7.09Y-3.7225
X7.09Y-3.8225
X7.09Y-3.9225
X7.0925Y-4.025
X7.0925Y-4.125
X7.0925Y-4.225
X7.099Y-4.8488
X7.124Y-8.526
X7.124Y-8.626
X7.124Y-8.726
X7.124Y-8.826
X7.124Y-8.926
X7.124Y-9.026
X7.124Y-9.126
X7.1291Y-8.351
X7.1322Y-9.6148
X7.1322Y-9.7148
X7.1322Y-9.8148
X7.1322Y-9.9148
X7.1322Y-10.0148
X7.1322Y-10.1148
X7.1322Y-10.2148
X7.1322Y-10.3148
X7.1322Y-10.4148
X7.1322Y-10.5148
X7.1322Y-10.6148
X7.1322Y-10.7148
X7.1331Y-9.425
X7.1975Y-5.9031
X7.1975Y-6.1
X7.249Y-4.3758
X7.2725Y-3.7225
X7.2725Y-4.2225
X7.326Y-8.351
X7.33Y-9.425
X7.3975Y-3.7225
X7.3975Y-4.2225
X7.424Y-8.526
X7.424Y-8.626
X7.424Y-8.726
X7.424Y-8.826
X7.424Y-8.926
X7.424Y-9.026
X7.424Y-9.126
X7.448Y-4.3758
X7.475Y-5.405
X7.475Y-5.505
X7.475Y-5.605
X7.475Y-5.705
X7.475Y-5.805
X7.475Y-5.905
X7.475Y-6.005
X7.4781Y-5.2025
X7.525Y-3.7225
X7.525Y-4.2225
X7.599Y-4.8488
X7.6031Y-4.35
X7.65Y-3.7225
X7.65Y-4.2225
X7.675Y-5.2025
X7.6756Y-4.58
X7.7322Y-9.6148
X7.7322Y-9.7148
X7.7322Y-9.8148
X7.7322Y-9.9148
X7.7322Y-10.0148
X7.7322Y-10.1148
X7.7322Y-10.2148
X7.7322Y-10.3148
X7.7322Y-10.4148
X7.7322Y-10.5148
X7.7322Y-10.6148
X7.7322Y-10.7148
X7.775Y-5.405
X7.775Y-5.505
X7.775Y-5.605
X7.775Y-5.705
X7.775Y-5.805
X7.775Y-5.905
X7.775Y-6.005
X7.8Y-4.35
X7.8321Y-8.276
X7.835Y-8.425
X7.835Y-8.525
X7.835Y-8.625
X7.835Y-8.725
X7.835Y-8.825
X7.835Y-8.925
X7.835Y-9.025
X7.835Y-9.125
X7.8725Y-4.58
X8.029Y-8.276
X8.05Y-3.73
X8.05Y-3.83
X8.05Y-3.93
X8.05Y-4.03
X8.05Y-4.13
X8.05Y-4.23
X8.05Y-4.33
X8.05Y-4.43
X8.05Y-5.405
X8.05Y-5.505
X8.05Y-5.605
X8.05Y-5.705
X8.05Y-5.805
X8.05Y-5.905
X8.05Y-6.005
X8.0531Y-5.2025
X8.055Y-3.55
X8.135Y-8.425
X8.135Y-8.525
X8.135Y-8.625
X8.135Y-8.725
X8.135Y-8.825
X8.135Y-8.925
X8.135Y-9.025
X8.135Y-9.125
X8.2334Y-9.6132
X8.2334Y-9.7132
X8.2334Y-9.8132
X8.2334Y-9.9132
X8.2334Y-10.0132
X8.2334Y-10.1132
X8.2334Y-10.2132
X8.2334Y-10.3132
X8.2334Y-10.4132
X8.2334Y-10.5132
X8.2334Y-10.6132
X8.2334Y-10.7132
X8.2341Y-9.428
X8.25Y-5.2025
X8.2519Y-3.55
X8.35Y-3.73
X8.35Y-3.83
X8.35Y-3.93
X8.35Y-4.03
X8.35Y-4.13
X8.35Y-4.23
X8.35Y-4.33
X8.35Y-4.43
X8.35Y-5.405
X8.35Y-5.505
X8.35Y-5.605
X8.35Y-5.705
X8.35Y-5.805
X8.35Y-5.905
X8.35Y-6.005
X8.3525Y-4.6531
X8.3525Y-4.85
X8.431Y-9.428
X8.4525Y-5.0081
X8.4525Y-5.205
X8.53Y-8.305
X8.53Y-8.405
X8.53Y-8.505
X8.53Y-8.605
X8.53Y-8.705
X8.53Y-8.805
X8.53Y-8.905
X8.53Y-9.005
X8.53Y-9.105
X8.53Y-9.205
X8.65Y-3.55
X8.65Y-3.65
X8.65Y-3.75
X8.65Y-3.85
X8.65Y-3.95
X8.65Y-4.05
X8.65Y-4.15
X8.65Y-4.25
X8.65Y-4.35
X8.65Y-4.45
X8.65Y-4.55
X8.65Y-4.65
X8.65Y-4.75
X8.65Y-4.85
X8.65Y-4.95
X8.65Y-5.05
X8.65Y-5.15
X8.65Y-5.25
X8.65Y-5.35
X8.65Y-5.45
X8.65Y-5.55
X8.65Y-5.65
X8.65Y-5.75
X8.65Y-5.85
X8.83Y-8.305
X8.83Y-8.405
X8.83Y-8.505
X8.83Y-8.605
X8.83Y-8.705
X8.83Y-8.805
X8.83Y-8.905
X8.83Y-9.005
X8.83Y-9.105
X8.83Y-9.205
X8.8334Y-9.6132
X8.8334Y-9.7132
X8.8334Y-9.8132
X8.8334Y-9.9132
X8.8334Y-10.0132
X8.8334Y-10.1132
X8.8334Y-10.2132
X8.8334Y-10.3132
X8.8334Y-10.4132
X8.8334Y-10.5132
X8.8334Y-10.6132
X8.8334Y-10.7132
X8.9525Y-2.9741
X8.9525Y-3.171
X9.006Y-8.1731
X9.006Y-8.37
X9.058Y-9.499
X9.058Y-9.599
X9.058Y-9.699
X9.058Y-9.799
X9.058Y-9.899
X9.058Y-9.999
X9.058Y-10.099
X9.058Y-10.199
X9.058Y-10.299
X9.058Y-10.399
X9.129Y-2.974
X9.129Y-3.1709
X9.209Y-10.1981
X9.209Y-10.395
X9.25Y-3.55
X9.25Y-3.65
X9.25Y-3.75
X9.25Y-3.85
X9.25Y-3.95
X9.25Y-4.05
X9.25Y-4.15
X9.25Y-4.25
X9.25Y-4.35
X9.25Y-4.45
X9.25Y-4.55
X9.25Y-4.65
X9.25Y-4.75
X9.25Y-4.85
X9.25Y-4.95
X9.25Y-5.05
X9.25Y-5.15
X9.25Y-5.25
X9.25Y-5.35
X9.25Y-5.45
X9.25Y-5.55
X9.25Y-5.65
X9.25Y-5.75
X9.25Y-5.85
X9.355Y-8.1
X9.355Y-8.2
X9.355Y-8.3
X9.355Y-8.4
X9.355Y-8.5
X9.355Y-8.6
X9.355Y-8.7
X9.355Y-8.8
X9.355Y-8.9
X9.355Y-9.0
X9.355Y-9.1
X9.355Y-9.2
X9.355Y-9.3
X9.355Y-9.4
X9.355Y-9.5
X9.355Y-9.6
X9.355Y-9.7
X9.355Y-9.8
X9.355Y-9.9
X9.355Y-10.0
X9.355Y-10.1
X9.355Y-10.2
X9.355Y-10.3
X9.355Y-10.4
X9.675Y-4.825
X9.675Y-4.925
X9.675Y-5.025
X9.675Y-5.125
X9.675Y-5.225
X9.675Y-5.325
X9.675Y-5.425
X9.7245Y-4.1225
X9.7245Y-4.6225
X9.744Y-3.8011
X9.744Y-3.998
X9.75Y-2.97
X9.75Y-3.47
X9.8494Y-2.97
X9.8494Y-3.47
X9.9295Y-4.1236
X9.9295Y-4.3205
X9.9488Y-2.97
X9.9488Y-3.47
X9.955Y-8.1
X9.955Y-8.2
X9.955Y-8.3
X9.955Y-8.4
X9.955Y-8.5
X9.955Y-8.6
X9.955Y-8.7
X9.955Y-8.8
X9.955Y-8.9
X9.955Y-9.0
X9.955Y-9.1
X9.955Y-9.2
X9.955Y-9.3
X9.955Y-9.4
X9.955Y-9.5
X9.955Y-9.6
X9.955Y-9.7
X9.955Y-9.8
X9.955Y-9.9
X9.955Y-10.0
X9.955Y-10.1
X9.955Y-10.2
X9.955Y-10.3
X9.955Y-10.4
X9.975Y-4.825
X9.975Y-4.925
X9.975Y-5.025
X9.975Y-5.125
X9.975Y-5.225
X9.975Y-5.325
X9.975Y-5.425
X10.0482Y-2.97
X10.0482Y-3.47
X10.071Y-3.878
X10.071Y-4.378
X10.1477Y-2.97
X10.1477Y-3.47
X10.187Y-10.419
X10.187Y-10.519
X10.187Y-10.619
X10.197Y-5.075
X10.197Y-5.575
X10.198Y-4.476
X10.198Y-4.976
X10.199Y-3.878
X10.199Y-4.378
X10.238Y-9.792
X10.238Y-10.292
X10.2471Y-2.97
X10.2471Y-3.47
X10.321Y-3.878
X10.321Y-4.378
X10.321Y-5.074
X10.321Y-5.574
X10.3298Y-4.4762
X10.3298Y-4.9762
X10.3331Y-8.749
X10.3465Y-2.97
X10.3465Y-3.47
X10.3525Y-5.7005
X10.3525Y-6.2005
X10.3555Y-8.0991
X10.3555Y-8.296
X10.3634Y-9.7924
X10.3634Y-10.2924
X10.4072Y-9.1686
X10.41Y-7.92
X10.41Y-8.92
X10.41Y-9.0448
X10.41Y-9.2942
X10.41Y-9.419
X10.5078Y-7.6896
X10.51Y-7.92
X10.53Y-8.749
X10.532Y-3.0236
X10.532Y-3.2205
X10.545Y-3.952
X10.55Y-5.3725
X10.5501Y-4.147
X10.5501Y-4.3226
X10.5501Y-4.4981
X10.5501Y-4.6737
X10.5501Y-5.0249
X10.5501Y-5.2004
X10.5533Y-4.848
X10.56Y-5.625
X10.56Y-5.725
X10.56Y-5.825
X10.56Y-5.925
X10.56Y-6.025
X10.56Y-6.125
X10.56Y-6.225
X10.605Y-10.115
X10.605Y-10.215
X10.605Y-10.315
X10.605Y-10.415
X10.605Y-10.515
X10.605Y-10.615
X10.605Y-10.715
X10.6078Y-7.6896
X10.61Y-7.92
X10.6151Y-9.916
X10.645Y-3.952
X10.705Y-3.0246
X10.705Y-3.2215
X10.7078Y-7.6896
X10.71Y-7.92
X10.71Y-8.74
X10.745Y-3.952
X10.7469Y-5.3725
X10.747Y-4.147
X10.747Y-4.3226
X10.747Y-4.4981
X10.747Y-4.6737
X10.747Y-5.0249
X10.747Y-5.2004
X10.7502Y-4.848
X10.8078Y-7.6896
X10.81Y-7.92
X10.812Y-9.916
X10.86Y-5.625
X10.86Y-5.725
X10.86Y-5.825
X10.86Y-5.925
X10.86Y-6.025
X10.86Y-6.125
X10.86Y-6.225
X10.88Y-3.0246
X10.88Y-3.2215
X10.905Y-10.115
X10.905Y-10.215
X10.905Y-10.315
X10.905Y-10.415
X10.905Y-10.515
X10.905Y-10.615
X10.905Y-10.715
X10.9069Y-8.74
X10.9072Y-9.1686
X10.9078Y-7.6896
X10.91Y-7.92
X10.91Y-8.92
X10.91Y-9.0448
X10.91Y-9.2942
X10.91Y-9.419
X10.9215Y-2.267
X10.9825Y-3.87
X10.9825Y-3.97
X10.9825Y-4.07
X10.9825Y-4.17
X10.9825Y-4.27
X10.9825Y-4.37
X10.9825Y-4.47
X10.9825Y-4.57
X10.9825Y-4.67
X10.9825Y-4.77
X10.9825Y-4.87
X10.9825Y-4.97
X10.9825Y-5.07
X10.9825Y-5.17
X11.0078Y-7.6896
X11.01Y-7.92
X11.056Y-6.0245
X11.056Y-6.2214
X11.057Y-5.5801
X11.057Y-5.777
X11.104Y-3.546
X11.1078Y-7.6896
X11.11Y-7.92
X11.2055Y-3.0955
X11.2055Y-3.215
X11.2078Y-7.6896
X11.21Y-7.92
X11.21Y-8.95
X11.21Y-9.05
X11.21Y-9.15
X11.21Y-9.25
X11.21Y-9.35
X11.21Y-9.45
X11.21Y-9.55
X11.2101Y-8.74
X11.2101Y-9.916
X11.215Y-10.115
X11.215Y-10.215
X11.215Y-10.315
X11.215Y-10.415
X11.215Y-10.515
X11.215Y-10.615
X11.215Y-10.715
X11.28Y-5.625
X11.28Y-5.725
X11.28Y-5.825
X11.28Y-5.925
X11.28Y-6.025
X11.28Y-6.125
X11.28Y-6.225
X11.2806Y-5.3675
X11.407Y-8.74
X11.407Y-9.916
X11.4215Y-2.267
X11.4775Y-5.3675
X11.51Y-8.95
X11.51Y-9.05
X11.51Y-9.15
X11.51Y-9.25
X11.51Y-9.35
X11.51Y-9.45
X11.51Y-9.55
X11.515Y-10.115
X11.515Y-10.215
X11.515Y-10.315
X11.515Y-10.415
X11.515Y-10.515
X11.515Y-10.615
X11.515Y-10.715
X11.58Y-5.625
X11.58Y-5.725
X11.58Y-5.825
X11.58Y-5.925
X11.58Y-6.025
X11.58Y-6.125
X11.58Y-6.225
X11.5815Y-2.576
X11.5815Y-2.7729
X11.5825Y-3.87
X11.5825Y-3.97
X11.5825Y-4.07
X11.5825Y-4.17
X11.5825Y-4.27
X11.5825Y-4.37
X11.5825Y-4.47
X11.5825Y-4.57
X11.5825Y-4.67
X11.5825Y-4.77
X11.5825Y-4.87
X11.5825Y-4.97
X11.5825Y-5.07
X11.5825Y-5.17
X11.604Y-3.546
X11.6112Y-7.9943
X11.6112Y-8.4943
X11.7055Y-3.0955
X11.7055Y-3.215
X11.707Y-3.544
X11.76Y-5.573
X11.76Y-6.073
X11.783Y-4.974
X11.783Y-5.1709
X11.7835Y-4.5
X11.7835Y-4.6969
X11.805Y-7.645
X11.805Y-7.745
X11.805Y-7.845
X11.805Y-7.945
X11.805Y-8.045
X11.805Y-8.145
X11.805Y-8.245
X11.805Y-8.345
X11.805Y-10.115
X11.805Y-10.215
X11.805Y-10.315
X11.805Y-10.415
X11.805Y-10.515
X11.805Y-10.615
X11.805Y-10.715
X11.81Y-8.95
X11.81Y-9.05
X11.81Y-9.15
X11.81Y-9.25
X11.81Y-9.35
X11.81Y-9.45
X11.81Y-9.55
X11.8131Y-8.74
X11.8141Y-9.916
X11.8151Y-7.494
X11.831Y-3.2205
X12.01Y-8.74
X12.011Y-9.916
X12.012Y-7.494
X12.03Y-5.5711
X12.03Y-5.768
X12.03Y-5.9211
X12.03Y-6.118
X12.105Y-7.645
X12.105Y-7.745
X12.105Y-7.845
X12.105Y-7.945
X12.105Y-8.045
X12.105Y-8.145
X12.105Y-8.245
X12.105Y-8.345
X12.105Y-10.115
X12.105Y-10.215
X12.105Y-10.315
X12.105Y-10.415
X12.105Y-10.515
X12.105Y-10.615
X12.105Y-10.715
X12.11Y-8.95
X12.11Y-9.05
X12.11Y-9.15
X12.11Y-9.25
X12.11Y-9.35
X12.11Y-9.45
X12.11Y-9.55
X12.207Y-3.544
X12.263Y-7.4511
X12.263Y-7.648
X12.331Y-3.2205
X12.387Y-5.194
X12.387Y-5.294
X12.387Y-5.394
X12.387Y-5.494
X12.387Y-5.594
X12.387Y-5.694
X12.387Y-5.794
X12.387Y-5.894
X12.387Y-5.994
X12.387Y-6.094
X12.4108Y-10.115
X12.4108Y-10.215
X12.4108Y-10.315
X12.4108Y-10.415
X12.4108Y-10.515
X12.4108Y-10.615
X12.4108Y-10.715
X12.4131Y-9.916
X12.49Y-7.64
X12.49Y-7.74
X12.49Y-7.84
X12.49Y-7.94
X12.49Y-8.04
X12.49Y-8.14
X12.49Y-8.24
X12.49Y-8.34
X12.49Y-8.44
X12.49Y-8.54
X12.49Y-8.64
X12.49Y-8.74
X12.49Y-8.84
X12.49Y-8.94
X12.49Y-9.04
X12.49Y-9.14
X12.49Y-9.24
X12.49Y-9.34
X12.49Y-9.44
X12.49Y-9.54
X12.61Y-9.916
X12.7108Y-10.115
X12.7108Y-10.215
X12.7108Y-10.315
X12.7108Y-10.415
X12.7108Y-10.515
X12.7108Y-10.615
X12.7108Y-10.715
X13.0131Y-9.916
X13.02Y-10.115
X13.02Y-10.215
X13.02Y-10.315
X13.02Y-10.415
X13.02Y-10.515
X13.02Y-10.615
X13.02Y-10.715
X13.09Y-7.64
X13.09Y-7.74
X13.09Y-7.84
X13.09Y-7.94
X13.09Y-8.04
X13.09Y-8.14
X13.09Y-8.24
X13.09Y-8.34
X13.09Y-8.44
X13.09Y-8.54
X13.09Y-8.64
X13.09Y-8.74
X13.09Y-8.84
X13.09Y-8.94
X13.09Y-9.04
X13.09Y-9.14
X13.09Y-9.24
X13.09Y-9.34
X13.09Y-9.44
X13.09Y-9.54
X13.11Y-6.072
X13.11Y-6.572
X13.21Y-9.916
X13.266Y-9.42
X13.266Y-9.6169
X13.32Y-10.115
X13.32Y-10.215
X13.32Y-10.315
X13.32Y-10.415
X13.32Y-10.515
X13.32Y-10.615
X13.32Y-10.715
X13.41Y-7.6396
X13.41Y-7.7396
X13.41Y-7.8396
X13.41Y-7.9396
X13.41Y-8.0396
X13.41Y-8.1396
X13.41Y-8.2396
X13.41Y-8.3396
X13.41Y-8.4396
X13.41Y-8.5396
X13.41Y-8.6396
X13.41Y-8.7396
X13.41Y-8.8396
X13.41Y-8.9396
X13.41Y-9.0396
X13.41Y-9.1396
X13.41Y-9.2396
X13.41Y-9.3396
X13.41Y-9.4396
X13.41Y-9.5396
X13.54Y-10.088
X13.54Y-10.2126
X13.54Y-10.3372
X13.54Y-10.4618
X13.54Y-10.5864
X13.54Y-10.711
X13.8381Y-7.17
X13.845Y-6.07
X13.845Y-6.17
X13.845Y-6.27
X13.845Y-6.37
X13.845Y-6.47
X13.845Y-6.57
X13.845Y-6.67
X13.845Y-6.77
X13.845Y-6.87
X13.845Y-6.97
X14.01Y-7.6396
X14.01Y-7.7396
X14.01Y-7.8396
X14.01Y-7.9396
X14.01Y-8.0396
X14.01Y-8.1396
X14.01Y-8.2396
X14.01Y-8.3396
X14.01Y-8.4396
X14.01Y-8.5396
X14.01Y-8.6396
X14.01Y-8.7396
X14.01Y-8.8396
X14.01Y-8.9396
X14.01Y-9.0396
X14.01Y-9.1396
X14.01Y-9.2396
X14.01Y-9.3396
X14.01Y-9.4396
X14.01Y-9.5396
X14.035Y-7.17
X14.04Y-10.088
X14.04Y-10.2126
X14.04Y-10.3372
X14.04Y-10.4618
X14.04Y-10.5864
X14.04Y-10.711
X14.145Y-6.07
X14.145Y-6.17
X14.145Y-6.27
X14.145Y-6.37
X14.145Y-6.47
X14.145Y-6.57
X14.145Y-6.67
X14.145Y-6.77
X14.145Y-6.87
X14.145Y-6.97
X14.185Y-4.52
X14.185Y-4.62
X14.185Y-4.72
X14.185Y-4.82
X14.185Y-4.92
X14.185Y-5.02
X14.185Y-5.12
X14.185Y-5.22
X14.185Y-5.32
X14.185Y-5.42
X14.3331Y-4.246
X14.36Y-7.6376
X14.36Y-7.7376
X14.36Y-7.8376
X14.36Y-7.9376
X14.36Y-8.0376
X14.36Y-8.1376
X14.36Y-8.2376
X14.36Y-8.3376
X14.36Y-8.4376
X14.36Y-8.5376
X14.3631Y-8.942
X14.3631Y-9.14
X14.3631Y-9.54
X14.365Y-4.72
X14.365Y-4.82
X14.365Y-4.92
X14.365Y-5.02
X14.365Y-5.12
X14.365Y-5.22
X14.365Y-5.32
X14.365Y-5.42
X14.365Y-5.52
X14.365Y-5.62
X14.365Y-5.72
X14.365Y-5.82
X14.365Y-5.92
X14.365Y-6.02
X14.365Y-6.12
X14.365Y-6.22
X14.365Y-6.32
X14.365Y-6.42
X14.365Y-6.52
X14.365Y-6.62
X14.365Y-6.72
X14.365Y-6.82
X14.365Y-6.92
X14.365Y-7.02
X14.37Y-9.81
X14.37Y-9.91
X14.37Y-10.01
X14.37Y-10.11
X14.37Y-10.21
X14.37Y-10.31
X14.37Y-10.41
X14.37Y-10.51
X14.37Y-10.61
X14.37Y-10.71
X14.53Y-4.246
X14.56Y-8.942
X14.56Y-9.14
X14.56Y-9.54
X14.66Y-7.6376
X14.66Y-7.7376
X14.66Y-7.8376
X14.66Y-7.9376
X14.66Y-8.0376
X14.66Y-8.1376
X14.66Y-8.2376
X14.66Y-8.3376
X14.66Y-8.4376
X14.66Y-8.5376
X14.67Y-9.81
X14.67Y-9.91
X14.67Y-10.01
X14.67Y-10.11
X14.67Y-10.21
X14.67Y-10.31
X14.67Y-10.41
X14.67Y-10.51
X14.67Y-10.61
X14.67Y-10.71
X14.75Y-4.17
X14.871Y-7.4461
X14.871Y-7.643
X14.9469Y-4.17
X14.965Y-4.72
X14.965Y-4.82
X14.965Y-4.92
X14.965Y-5.02
X14.965Y-5.12
X14.965Y-5.22
X14.965Y-5.32
X14.965Y-5.42
X14.965Y-5.52
X14.965Y-5.62
X14.965Y-5.72
X14.965Y-5.82
X14.965Y-5.92
X14.965Y-6.02
X14.965Y-6.12
X14.965Y-6.22
X14.965Y-6.32
X14.965Y-6.42
X14.965Y-6.52
X14.965Y-6.62
X14.965Y-6.72
X14.965Y-6.82
X14.965Y-6.92
X14.965Y-7.02
X14.97Y-9.861
X15.02Y-7.64
X15.02Y-7.74
X15.02Y-7.84
X15.02Y-7.94
X15.02Y-8.04
X15.02Y-8.14
X15.02Y-8.24
X15.02Y-8.34
X15.02Y-8.44
X15.02Y-8.54
X15.02Y-8.64
X15.02Y-8.74
X15.02Y-8.84
X15.02Y-8.94
X15.02Y-9.04
X15.02Y-9.14
X15.02Y-9.24
X15.02Y-9.34
X15.02Y-9.44
X15.02Y-9.54
X15.137Y-6.4171
X15.137Y-6.614
X15.158Y-3.343
X15.158Y-3.5399
X15.1611Y-5.091
X15.1669Y-9.861
X15.25Y-4.7375
X15.31Y-4.17
X15.318Y-6.216
X15.32Y-6.415
X15.32Y-6.515
X15.32Y-6.615
X15.32Y-6.715
X15.32Y-6.815
X15.32Y-6.915
X15.32Y-7.015
X15.34Y-9.989
X15.34Y-10.489
X15.358Y-5.091
X15.362Y-4.889
X15.413Y-4.517
X15.4631Y-5.088
X15.491Y-9.989
X15.491Y-10.489
X15.5069Y-4.17
X15.5149Y-6.216
X15.5589Y-4.889
X15.6099Y-4.517
X15.62Y-6.415
X15.62Y-6.515
X15.62Y-6.615
X15.62Y-6.715
X15.62Y-6.815
X15.62Y-6.915
X15.62Y-7.015
X15.62Y-7.64
X15.62Y-7.74
X15.62Y-7.84
X15.62Y-7.94
X15.62Y-8.04
X15.62Y-8.14
X15.62Y-8.24
X15.62Y-8.34
X15.62Y-8.44
X15.62Y-8.54
X15.62Y-8.64
X15.62Y-8.74
X15.62Y-8.84
X15.62Y-8.94
X15.62Y-9.04
X15.62Y-9.14
X15.62Y-9.24
X15.62Y-9.34
X15.62Y-9.44
X15.62Y-9.54
X15.66Y-5.088
X15.695Y-2.3881
X15.695Y-2.585
X15.695Y-2.8381
X15.695Y-3.035
X15.7111Y-2.113
X15.75Y-4.7375
X15.86Y-4.06
X15.908Y-2.113
X15.937Y-4.389
X16.0569Y-4.06
X16.0651Y-5.114
X16.0681Y-8.665
X16.115Y-4.7641
X16.115Y-4.961
X16.1339Y-4.389
X16.262Y-5.114
X16.265Y-8.665
X16.314Y-3.9681
X16.314Y-4.165
X16.413Y-4.821
X16.413Y-4.957
X16.416Y-2.893
X16.416Y-3.0899
X16.438Y-4.365
X16.913Y-4.821
X16.913Y-4.957
X16.938Y-4.365
T4
X1.8375Y-6.36
X2.17Y-2.56
X2.17Y-2.65
X2.3175Y-6.3525
X2.565Y-4.5775
X3.4025Y-6.35
X3.81Y-4.525
X4.04Y-2.56
X4.04Y-2.65
X8.2288Y-2.555
X14.81Y-3.865
X14.81Y-3.96
X16.413Y-5.114
T5
X1.7184Y-8.2046
X1.7184Y-8.3046
X1.7184Y-8.4046
X5.112Y-1.8998
X5.1665Y-1.788
X5.2211Y-1.8998
X5.2756Y-1.788
X5.3301Y-1.8998
X5.3846Y-1.788
X5.4392Y-1.8998
X5.4937Y-1.788
X5.5482Y-1.8998
X6.24Y-4.9525
X6.74Y-4.9525
X6.9Y-9.42
X7.65Y-3.575
X7.75Y-3.575
X7.8Y-3.73
X7.8Y-4.23
X8.1272Y-6.4786
X8.6272Y-6.4786
X8.6531Y-6.03
X8.85Y-6.03
X9.605Y-2.969
X9.605Y-3.469
X10.208Y-10.7165
X10.208Y-10.817
X10.308Y-10.7165
X10.308Y-10.817
X11.431Y-2.1208
X11.531Y-2.1208
X11.631Y-2.1208
X11.731Y-2.1208
X11.831Y-2.1208
X11.931Y-2.1208
X12.031Y-2.1208
X12.744Y-2.6764
X12.744Y-2.8764
X12.844Y-2.6764
X12.844Y-2.8764
X12.944Y-2.6764
X12.944Y-2.8764
X13.044Y-2.6764
X13.044Y-2.8764
X13.144Y-2.6764
X13.144Y-2.8764
X13.244Y-2.6764
X13.244Y-2.8764
X13.344Y-2.6764
X13.344Y-2.8764
X13.444Y-2.6764
X13.444Y-2.8764
X13.544Y-2.6764
X13.544Y-2.8764
X13.644Y-2.6764
X13.644Y-2.8764
X13.744Y-2.6764
X13.744Y-2.8764
X13.844Y-2.6764
X13.844Y-2.8764
X13.944Y-2.6764
X13.944Y-2.8764
X14.044Y-2.6764
X14.044Y-2.8764
X14.144Y-2.6764
X14.144Y-2.8764
X14.244Y-2.6764
X14.244Y-2.8764
X14.344Y-2.6764
X14.344Y-2.8764
X14.444Y-2.6764
X14.444Y-2.8764
X14.544Y-2.6764
X14.544Y-2.8764
X14.644Y-2.6764
X14.644Y-2.8764
X14.744Y-2.6764
X14.744Y-2.8764
X14.844Y-2.6764
X14.844Y-2.8764
X14.964Y-10.313
X15.02Y-10.062
X15.02Y-10.189
X15.064Y-10.313
X15.12Y-10.062
X15.12Y-10.189
X15.164Y-10.313
X16.2638Y-4.6704
X16.3935Y-4.6248
X16.412Y-2.29
X16.412Y-2.6837
X16.4592Y-4.1592
X16.4939Y-4.6245
X16.5889Y-4.1136
X16.5927Y-4.6245
X16.6Y-5.5238
X16.6Y-5.6328
X16.6Y-5.7419
X16.6Y-5.8509
X16.6Y-5.96
X16.6004Y-6.7656
X16.6004Y-6.8746
X16.6004Y-6.9837
X16.6004Y-7.0927
X16.6004Y-7.2018
X16.6893Y-4.1133
X16.7088Y-4.5404
X16.7118Y-5.5783
X16.7118Y-5.6874
X16.7118Y-5.7964
X16.7118Y-5.9055
X16.7122Y-6.8201
X16.7122Y-6.9292
X16.7122Y-7.0382
X16.7122Y-7.1473
X16.7881Y-4.1133
X16.87Y-8.3
X16.87Y-8.4091
X16.87Y-8.5181
X16.87Y-8.6272
X16.87Y-8.7362
X16.87Y-8.8453
X16.87Y-8.9543
X16.87Y-9.0634
X16.87Y-9.1724
X16.87Y-9.2815
X16.87Y-9.3906
X16.87Y-9.4996
X16.87Y-9.6087
X16.9042Y-4.0292
X16.9818Y-8.3545
X16.9818Y-8.4636
X16.9818Y-8.5726
X16.9818Y-8.6817
X16.9818Y-8.7907
X16.9818Y-8.8998
X16.9818Y-9.0089
X16.9818Y-9.1179
X16.9818Y-9.227
X16.9818Y-9.336
X16.9818Y-9.4451
X16.9818Y-9.5541
T6
X11.8024Y-3.0954
X11.9024Y-3.0954
X12.0024Y-3.0954
X14.758Y-4.514
X15.258Y-4.514
X15.309Y-3.343
X15.309Y-3.843
X15.335Y-5.25
X15.435Y-5.25
X15.535Y-5.25
T7
X7.147Y-5.261
X7.147Y-5.761
X7.286Y-5.284
X7.286Y-5.784
T8
X15.5332Y-3.413
X15.5332Y-3.713
X15.8332Y-3.413
X15.8332Y-3.713
T9
X7.775Y-4.805
X7.775Y-5.0019
X8.4597Y-1.865
X8.4597Y-2.0619
X8.555Y-1.47
X8.5581Y-1.9634
X8.755Y-1.57
X8.755Y-1.865
X8.755Y-2.0619
X8.95Y-1.47
X8.9519Y-1.9634
X9.0503Y-1.865
X9.0503Y-2.0619
X9.2501Y-1.8652
X9.3454Y-1.4702
X9.3485Y-1.9636
X9.5454Y-1.5702
X9.5454Y-1.8652
X9.5454Y-2.0621
X9.7404Y-1.4702
X9.7423Y-1.9636
X9.8407Y-1.8652
X15.9202Y-2.4346
X15.9202Y-2.6346
X15.9202Y-3.0346
X16.1898Y-2.4346
X16.1898Y-2.6346
X16.1898Y-3.0346
T10
X13.3308Y-3.535
X14.945Y-3.535
X16.67Y-2.4297
X16.67Y-3.0203
X16.7685Y-2.9219
X16.8669Y-2.4297
X16.8669Y-2.725
X17.1622Y-2.6266
X17.1622Y-2.725
X17.1622Y-2.8234
T11
X16.2783Y-3.417
X16.2783Y-3.6139
X16.4358Y-3.417
X16.4358Y-3.6139
X16.5933Y-3.417
X16.5933Y-3.6139
X17.0727Y-3.417
X17.0727Y-3.6139
T12
X4.69Y-4.9175
X6.19Y-6.21
X6.1925Y-3.38
X6.96Y-4.825
X7.9325Y-3.38
X7.9325Y-6.21
X9.4525Y-4.6925
X15.7396Y-1.7052
X15.8956Y-1.7052
X16.0516Y-1.7052
X16.2076Y-1.7052
X16.5196Y-1.7052
T13
X12.2408Y-2.5324
X15.3378Y-2.518
T14
X16.9259Y-8.0272
X16.9259Y-9.8815
X16.9622Y-5.2498
X16.9622Y-6.234
X16.9626Y-6.4916
X16.9626Y-7.4758
T15
X4.838Y-1.8439
X5.8222Y-1.8439
T16
X1.565Y-10.86
X1.715Y-2.075
X9.43Y-10.865
X10.28Y-2.075
X11.9024Y-2.4395
X15.435Y-5.9059
X16.62Y-2.065
X17.05Y-10.85
T11
G00X6.125Y-2.4089
M15
G01X6.125Y-2.2711
M16
G05
G00X7.0861Y-1.5225
M15
G01X7.2239Y-1.5225
M16
G05
G00X7.0861Y-3.15
M15
G01X7.2239Y-3.15
M16
G05
G00X8.195Y-2.4089
M15
G01X8.195Y-2.2711
M16
G05
G00X12.242Y-1.4785
M15
G01X12.242Y-1.6163
M16
G05
G00X15.3378Y-1.4785
M15
G01X15.3378Y-1.6163
M16
G05
T0
M30
