G04 #@! TF.GenerationSoftware,KiCad,Pcbnew,(5.1.9)-1*
G04 #@! TF.CreationDate,2021-03-22T16:11:12+01:00*
G04 #@! TF.ProjectId,Open128,4f70656e-3132-4382-9e6b-696361645f70,3*
G04 #@! TF.SameCoordinates,Original*
G04 #@! TF.FileFunction,Legend,Bot*
G04 #@! TF.FilePolarity,Positive*
%FSLAX46Y46*%
G04 Gerber Fmt 4.6, Leading zero omitted, Abs format (unit mm)*
G04 Created by KiCad (PCBNEW (5.1.9)-1) date 2021-03-22 16:11:12*
%MOMM*%
%LPD*%
G01*
G04 APERTURE LIST*
%ADD10C,0.120000*%
%ADD11C,0.150000*%
G04 APERTURE END LIST*
D10*
X163576000Y-80010000D02*
X163576000Y-76454000D01*
X171196000Y-80010000D02*
X163576000Y-80010000D01*
X171196000Y-76454000D02*
X171196000Y-80010000D01*
D11*
X169814571Y-78192380D02*
X169624095Y-78192380D01*
X169528857Y-78240000D01*
X169433619Y-78335238D01*
X169386000Y-78525714D01*
X169386000Y-78859047D01*
X169433619Y-79049523D01*
X169528857Y-79144761D01*
X169624095Y-79192380D01*
X169814571Y-79192380D01*
X169909809Y-79144761D01*
X170005047Y-79049523D01*
X170052666Y-78859047D01*
X170052666Y-78525714D01*
X170005047Y-78335238D01*
X169909809Y-78240000D01*
X169814571Y-78192380D01*
X168528857Y-78525714D02*
X168528857Y-79192380D01*
X168957428Y-78525714D02*
X168957428Y-79049523D01*
X168909809Y-79144761D01*
X168814571Y-79192380D01*
X168671714Y-79192380D01*
X168576476Y-79144761D01*
X168528857Y-79097142D01*
X168195523Y-78525714D02*
X167814571Y-78525714D01*
X168052666Y-78192380D02*
X168052666Y-79049523D01*
X168005047Y-79144761D01*
X167909809Y-79192380D01*
X167814571Y-79192380D01*
X167481238Y-78525714D02*
X167481238Y-79525714D01*
X167481238Y-78573333D02*
X167386000Y-78525714D01*
X167195523Y-78525714D01*
X167100285Y-78573333D01*
X167052666Y-78620952D01*
X167005047Y-78716190D01*
X167005047Y-79001904D01*
X167052666Y-79097142D01*
X167100285Y-79144761D01*
X167195523Y-79192380D01*
X167386000Y-79192380D01*
X167481238Y-79144761D01*
X166147904Y-78525714D02*
X166147904Y-79192380D01*
X166576476Y-78525714D02*
X166576476Y-79049523D01*
X166528857Y-79144761D01*
X166433619Y-79192380D01*
X166290761Y-79192380D01*
X166195523Y-79144761D01*
X166147904Y-79097142D01*
X165814571Y-78525714D02*
X165433619Y-78525714D01*
X165671714Y-78192380D02*
X165671714Y-79049523D01*
X165624095Y-79144761D01*
X165528857Y-79192380D01*
X165433619Y-79192380D01*
X165147904Y-79144761D02*
X165052666Y-79192380D01*
X164862190Y-79192380D01*
X164766952Y-79144761D01*
X164719333Y-79049523D01*
X164719333Y-79001904D01*
X164766952Y-78906666D01*
X164862190Y-78859047D01*
X165005047Y-78859047D01*
X165100285Y-78811428D01*
X165147904Y-78716190D01*
X165147904Y-78668571D01*
X165100285Y-78573333D01*
X165005047Y-78525714D01*
X164862190Y-78525714D01*
X164766952Y-78573333D01*
X164361857Y-73016809D02*
X164314238Y-73064428D01*
X164266619Y-73207285D01*
X164266619Y-73302523D01*
X164314238Y-73445380D01*
X164409476Y-73540619D01*
X164504714Y-73588238D01*
X164695190Y-73635857D01*
X164838047Y-73635857D01*
X165028523Y-73588238D01*
X165123761Y-73540619D01*
X165219000Y-73445380D01*
X165266619Y-73302523D01*
X165266619Y-73207285D01*
X165219000Y-73064428D01*
X165171380Y-73016809D01*
X164266619Y-72588238D02*
X165266619Y-72588238D01*
X164266619Y-72159666D02*
X164790428Y-72159666D01*
X164885666Y-72207285D01*
X164933285Y-72302523D01*
X164933285Y-72445380D01*
X164885666Y-72540619D01*
X164838047Y-72588238D01*
X164266619Y-71683476D02*
X164933285Y-71683476D01*
X164742809Y-71683476D02*
X164838047Y-71635857D01*
X164885666Y-71588238D01*
X164933285Y-71493000D01*
X164933285Y-71397761D01*
X164266619Y-70921571D02*
X164314238Y-71016809D01*
X164361857Y-71064428D01*
X164457095Y-71112047D01*
X164742809Y-71112047D01*
X164838047Y-71064428D01*
X164885666Y-71016809D01*
X164933285Y-70921571D01*
X164933285Y-70778714D01*
X164885666Y-70683476D01*
X164838047Y-70635857D01*
X164742809Y-70588238D01*
X164457095Y-70588238D01*
X164361857Y-70635857D01*
X164314238Y-70683476D01*
X164266619Y-70778714D01*
X164266619Y-70921571D01*
X164266619Y-70159666D02*
X164933285Y-70159666D01*
X164838047Y-70159666D02*
X164885666Y-70112047D01*
X164933285Y-70016809D01*
X164933285Y-69873952D01*
X164885666Y-69778714D01*
X164790428Y-69731095D01*
X164266619Y-69731095D01*
X164790428Y-69731095D02*
X164885666Y-69683476D01*
X164933285Y-69588238D01*
X164933285Y-69445380D01*
X164885666Y-69350142D01*
X164790428Y-69302523D01*
X164266619Y-69302523D01*
X164266619Y-68397761D02*
X164790428Y-68397761D01*
X164885666Y-68445380D01*
X164933285Y-68540619D01*
X164933285Y-68731095D01*
X164885666Y-68826333D01*
X164314238Y-68397761D02*
X164266619Y-68493000D01*
X164266619Y-68731095D01*
X164314238Y-68826333D01*
X164409476Y-68873952D01*
X164504714Y-68873952D01*
X164599952Y-68826333D01*
X164647571Y-68731095D01*
X164647571Y-68493000D01*
X164695190Y-68397761D01*
X166727238Y-73540476D02*
X166679619Y-73397619D01*
X166679619Y-73159523D01*
X166727238Y-73064285D01*
X166774857Y-73016666D01*
X166870095Y-72969047D01*
X166965333Y-72969047D01*
X167060571Y-73016666D01*
X167108190Y-73064285D01*
X167155809Y-73159523D01*
X167203428Y-73350000D01*
X167251047Y-73445238D01*
X167298666Y-73492857D01*
X167393904Y-73540476D01*
X167489142Y-73540476D01*
X167584380Y-73492857D01*
X167632000Y-73445238D01*
X167679619Y-73350000D01*
X167679619Y-73111904D01*
X167632000Y-72969047D01*
X167346285Y-72635714D02*
X166679619Y-72397619D01*
X167346285Y-72159523D02*
X166679619Y-72397619D01*
X166441523Y-72492857D01*
X166393904Y-72540476D01*
X166346285Y-72635714D01*
X167346285Y-71778571D02*
X166679619Y-71778571D01*
X167251047Y-71778571D02*
X167298666Y-71730952D01*
X167346285Y-71635714D01*
X167346285Y-71492857D01*
X167298666Y-71397619D01*
X167203428Y-71350000D01*
X166679619Y-71350000D01*
X166727238Y-70445238D02*
X166679619Y-70540476D01*
X166679619Y-70730952D01*
X166727238Y-70826190D01*
X166774857Y-70873809D01*
X166870095Y-70921428D01*
X167155809Y-70921428D01*
X167251047Y-70873809D01*
X167298666Y-70826190D01*
X167346285Y-70730952D01*
X167346285Y-70540476D01*
X167298666Y-70445238D01*
X167060571Y-70016666D02*
X167060571Y-69254761D01*
X166679619Y-69635714D02*
X167441523Y-69635714D01*
X166679619Y-68302380D02*
X166679619Y-68778571D01*
X167679619Y-68778571D01*
X167346285Y-67540476D02*
X166679619Y-67540476D01*
X167346285Y-67969047D02*
X166822476Y-67969047D01*
X166727238Y-67921428D01*
X166679619Y-67826190D01*
X166679619Y-67683333D01*
X166727238Y-67588095D01*
X166774857Y-67540476D01*
X166679619Y-67064285D02*
X167346285Y-67064285D01*
X167251047Y-67064285D02*
X167298666Y-67016666D01*
X167346285Y-66921428D01*
X167346285Y-66778571D01*
X167298666Y-66683333D01*
X167203428Y-66635714D01*
X166679619Y-66635714D01*
X167203428Y-66635714D02*
X167298666Y-66588095D01*
X167346285Y-66492857D01*
X167346285Y-66350000D01*
X167298666Y-66254761D01*
X167203428Y-66207142D01*
X166679619Y-66207142D01*
X169314857Y-73016904D02*
X169267238Y-73064523D01*
X169219619Y-73207380D01*
X169219619Y-73302619D01*
X169267238Y-73445476D01*
X169362476Y-73540714D01*
X169457714Y-73588333D01*
X169648190Y-73635952D01*
X169791047Y-73635952D01*
X169981523Y-73588333D01*
X170076761Y-73540714D01*
X170172000Y-73445476D01*
X170219619Y-73302619D01*
X170219619Y-73207380D01*
X170172000Y-73064523D01*
X170124380Y-73016904D01*
X169219619Y-72445476D02*
X169267238Y-72540714D01*
X169314857Y-72588333D01*
X169410095Y-72635952D01*
X169695809Y-72635952D01*
X169791047Y-72588333D01*
X169838666Y-72540714D01*
X169886285Y-72445476D01*
X169886285Y-72302619D01*
X169838666Y-72207380D01*
X169791047Y-72159761D01*
X169695809Y-72112142D01*
X169410095Y-72112142D01*
X169314857Y-72159761D01*
X169267238Y-72207380D01*
X169219619Y-72302619D01*
X169219619Y-72445476D01*
X169219619Y-71683571D02*
X169886285Y-71683571D01*
X169791047Y-71683571D02*
X169838666Y-71635952D01*
X169886285Y-71540714D01*
X169886285Y-71397857D01*
X169838666Y-71302619D01*
X169743428Y-71255000D01*
X169219619Y-71255000D01*
X169743428Y-71255000D02*
X169838666Y-71207380D01*
X169886285Y-71112142D01*
X169886285Y-70969285D01*
X169838666Y-70874047D01*
X169743428Y-70826428D01*
X169219619Y-70826428D01*
X169886285Y-70350238D02*
X168886285Y-70350238D01*
X169838666Y-70350238D02*
X169886285Y-70255000D01*
X169886285Y-70064523D01*
X169838666Y-69969285D01*
X169791047Y-69921666D01*
X169695809Y-69874047D01*
X169410095Y-69874047D01*
X169314857Y-69921666D01*
X169267238Y-69969285D01*
X169219619Y-70064523D01*
X169219619Y-70255000D01*
X169267238Y-70350238D01*
X162139333Y-73707285D02*
X162139333Y-73231095D01*
X161853619Y-73802523D02*
X162853619Y-73469190D01*
X161853619Y-73135857D01*
X162520285Y-72373952D02*
X161853619Y-72373952D01*
X162520285Y-72802523D02*
X161996476Y-72802523D01*
X161901238Y-72754904D01*
X161853619Y-72659666D01*
X161853619Y-72516809D01*
X161901238Y-72421571D01*
X161948857Y-72373952D01*
X161853619Y-71469190D02*
X162853619Y-71469190D01*
X161901238Y-71469190D02*
X161853619Y-71564428D01*
X161853619Y-71754904D01*
X161901238Y-71850142D01*
X161948857Y-71897761D01*
X162044095Y-71945380D01*
X162329809Y-71945380D01*
X162425047Y-71897761D01*
X162472666Y-71850142D01*
X162520285Y-71754904D01*
X162520285Y-71564428D01*
X162472666Y-71469190D01*
X161853619Y-70088238D02*
X161901238Y-70183476D01*
X161948857Y-70231095D01*
X162044095Y-70278714D01*
X162329809Y-70278714D01*
X162425047Y-70231095D01*
X162472666Y-70183476D01*
X162520285Y-70088238D01*
X162520285Y-69945380D01*
X162472666Y-69850142D01*
X162425047Y-69802523D01*
X162329809Y-69754904D01*
X162044095Y-69754904D01*
X161948857Y-69802523D01*
X161901238Y-69850142D01*
X161853619Y-69945380D01*
X161853619Y-70088238D01*
X162520285Y-68897761D02*
X161853619Y-68897761D01*
X162520285Y-69326333D02*
X161996476Y-69326333D01*
X161901238Y-69278714D01*
X161853619Y-69183476D01*
X161853619Y-69040619D01*
X161901238Y-68945380D01*
X161948857Y-68897761D01*
X162520285Y-68564428D02*
X162520285Y-68183476D01*
X162853619Y-68421571D02*
X161996476Y-68421571D01*
X161901238Y-68373952D01*
X161853619Y-68278714D01*
X161853619Y-68183476D01*
X201604571Y-73755142D02*
X201604571Y-72993238D01*
X201223619Y-73374190D02*
X201985523Y-73374190D01*
X202223619Y-72040857D02*
X202223619Y-72517047D01*
X201747428Y-72564666D01*
X201795047Y-72517047D01*
X201842666Y-72421809D01*
X201842666Y-72183714D01*
X201795047Y-72088476D01*
X201747428Y-72040857D01*
X201652190Y-71993238D01*
X201414095Y-71993238D01*
X201318857Y-72040857D01*
X201271238Y-72088476D01*
X201223619Y-72183714D01*
X201223619Y-72421809D01*
X201271238Y-72517047D01*
X201318857Y-72564666D01*
X196969000Y-73278904D02*
X197016619Y-73374142D01*
X197016619Y-73517000D01*
X196969000Y-73659857D01*
X196873761Y-73755095D01*
X196778523Y-73802714D01*
X196588047Y-73850333D01*
X196445190Y-73850333D01*
X196254714Y-73802714D01*
X196159476Y-73755095D01*
X196064238Y-73659857D01*
X196016619Y-73517000D01*
X196016619Y-73421761D01*
X196064238Y-73278904D01*
X196111857Y-73231285D01*
X196445190Y-73231285D01*
X196445190Y-73421761D01*
X196016619Y-72802714D02*
X197016619Y-72802714D01*
X196016619Y-72231285D01*
X197016619Y-72231285D01*
X196016619Y-71755095D02*
X197016619Y-71755095D01*
X197016619Y-71517000D01*
X196969000Y-71374142D01*
X196873761Y-71278904D01*
X196778523Y-71231285D01*
X196588047Y-71183666D01*
X196445190Y-71183666D01*
X196254714Y-71231285D01*
X196159476Y-71278904D01*
X196064238Y-71374142D01*
X196016619Y-71517000D01*
X196016619Y-71755095D01*
X193571857Y-73270809D02*
X193524238Y-73318428D01*
X193476619Y-73461285D01*
X193476619Y-73556523D01*
X193524238Y-73699380D01*
X193619476Y-73794619D01*
X193714714Y-73842238D01*
X193905190Y-73889857D01*
X194048047Y-73889857D01*
X194238523Y-73842238D01*
X194333761Y-73794619D01*
X194429000Y-73699380D01*
X194476619Y-73556523D01*
X194476619Y-73461285D01*
X194429000Y-73318428D01*
X194381380Y-73270809D01*
X193476619Y-72842238D02*
X194476619Y-72842238D01*
X193476619Y-72413666D02*
X194000428Y-72413666D01*
X194095666Y-72461285D01*
X194143285Y-72556523D01*
X194143285Y-72699380D01*
X194095666Y-72794619D01*
X194048047Y-72842238D01*
X193476619Y-71937476D02*
X194143285Y-71937476D01*
X193952809Y-71937476D02*
X194048047Y-71889857D01*
X194095666Y-71842238D01*
X194143285Y-71747000D01*
X194143285Y-71651761D01*
X193476619Y-71175571D02*
X193524238Y-71270809D01*
X193571857Y-71318428D01*
X193667095Y-71366047D01*
X193952809Y-71366047D01*
X194048047Y-71318428D01*
X194095666Y-71270809D01*
X194143285Y-71175571D01*
X194143285Y-71032714D01*
X194095666Y-70937476D01*
X194048047Y-70889857D01*
X193952809Y-70842238D01*
X193667095Y-70842238D01*
X193571857Y-70889857D01*
X193524238Y-70937476D01*
X193476619Y-71032714D01*
X193476619Y-71175571D01*
X193476619Y-70413666D02*
X194143285Y-70413666D01*
X194048047Y-70413666D02*
X194095666Y-70366047D01*
X194143285Y-70270809D01*
X194143285Y-70127952D01*
X194095666Y-70032714D01*
X194000428Y-69985095D01*
X193476619Y-69985095D01*
X194000428Y-69985095D02*
X194095666Y-69937476D01*
X194143285Y-69842238D01*
X194143285Y-69699380D01*
X194095666Y-69604142D01*
X194000428Y-69556523D01*
X193476619Y-69556523D01*
X193476619Y-68651761D02*
X194000428Y-68651761D01*
X194095666Y-68699380D01*
X194143285Y-68794619D01*
X194143285Y-68985095D01*
X194095666Y-69080333D01*
X193524238Y-68651761D02*
X193476619Y-68747000D01*
X193476619Y-68985095D01*
X193524238Y-69080333D01*
X193619476Y-69127952D01*
X193714714Y-69127952D01*
X193809952Y-69080333D01*
X193857571Y-68985095D01*
X193857571Y-68747000D01*
X193905190Y-68651761D01*
X198477238Y-73794476D02*
X198429619Y-73651619D01*
X198429619Y-73413523D01*
X198477238Y-73318285D01*
X198524857Y-73270666D01*
X198620095Y-73223047D01*
X198715333Y-73223047D01*
X198810571Y-73270666D01*
X198858190Y-73318285D01*
X198905809Y-73413523D01*
X198953428Y-73604000D01*
X199001047Y-73699238D01*
X199048666Y-73746857D01*
X199143904Y-73794476D01*
X199239142Y-73794476D01*
X199334380Y-73746857D01*
X199382000Y-73699238D01*
X199429619Y-73604000D01*
X199429619Y-73365904D01*
X199382000Y-73223047D01*
X199096285Y-72889714D02*
X198429619Y-72651619D01*
X199096285Y-72413523D02*
X198429619Y-72651619D01*
X198191523Y-72746857D01*
X198143904Y-72794476D01*
X198096285Y-72889714D01*
X199096285Y-72032571D02*
X198429619Y-72032571D01*
X199001047Y-72032571D02*
X199048666Y-71984952D01*
X199096285Y-71889714D01*
X199096285Y-71746857D01*
X199048666Y-71651619D01*
X198953428Y-71604000D01*
X198429619Y-71604000D01*
X198477238Y-70699238D02*
X198429619Y-70794476D01*
X198429619Y-70984952D01*
X198477238Y-71080190D01*
X198524857Y-71127809D01*
X198620095Y-71175428D01*
X198905809Y-71175428D01*
X199001047Y-71127809D01*
X199048666Y-71080190D01*
X199096285Y-70984952D01*
X199096285Y-70794476D01*
X199048666Y-70699238D01*
X198810571Y-70270666D02*
X198810571Y-69508761D01*
X198429619Y-69889714D02*
X199191523Y-69889714D01*
X198429619Y-68556380D02*
X198429619Y-69032571D01*
X199429619Y-69032571D01*
X199096285Y-67794476D02*
X198429619Y-67794476D01*
X199096285Y-68223047D02*
X198572476Y-68223047D01*
X198477238Y-68175428D01*
X198429619Y-68080190D01*
X198429619Y-67937333D01*
X198477238Y-67842095D01*
X198524857Y-67794476D01*
X198429619Y-67318285D02*
X199096285Y-67318285D01*
X199001047Y-67318285D02*
X199048666Y-67270666D01*
X199096285Y-67175428D01*
X199096285Y-67032571D01*
X199048666Y-66937333D01*
X198953428Y-66889714D01*
X198429619Y-66889714D01*
X198953428Y-66889714D02*
X199048666Y-66842095D01*
X199096285Y-66746857D01*
X199096285Y-66604000D01*
X199048666Y-66508761D01*
X198953428Y-66461142D01*
X198429619Y-66461142D01*
X399343619Y-49299619D02*
X399343619Y-49109142D01*
X399391238Y-49013904D01*
X399438857Y-48966285D01*
X399581714Y-48871047D01*
X399772190Y-48823428D01*
X400153142Y-48823428D01*
X400248380Y-48871047D01*
X400296000Y-48918666D01*
X400343619Y-49013904D01*
X400343619Y-49204380D01*
X400296000Y-49299619D01*
X400248380Y-49347238D01*
X400153142Y-49394857D01*
X399915047Y-49394857D01*
X399819809Y-49347238D01*
X399772190Y-49299619D01*
X399724571Y-49204380D01*
X399724571Y-49013904D01*
X399772190Y-48918666D01*
X399819809Y-48871047D01*
X399915047Y-48823428D01*
X400343619Y-48537714D02*
X399343619Y-48204380D01*
X400343619Y-47871047D01*
X399629333Y-47585333D02*
X399629333Y-47109142D01*
X399343619Y-47680571D02*
X400343619Y-47347238D01*
X399343619Y-47013904D01*
X399438857Y-46109142D02*
X399391238Y-46156761D01*
X399343619Y-46299619D01*
X399343619Y-46394857D01*
X399391238Y-46537714D01*
X399486476Y-46632952D01*
X399581714Y-46680571D01*
X399772190Y-46728190D01*
X399915047Y-46728190D01*
X400105523Y-46680571D01*
X400200761Y-46632952D01*
X400296000Y-46537714D01*
X400343619Y-46394857D01*
X400343619Y-46299619D01*
X400296000Y-46156761D01*
X400248380Y-46109142D01*
X403153619Y-49299619D02*
X403153619Y-49109142D01*
X403201238Y-49013904D01*
X403248857Y-48966285D01*
X403391714Y-48871047D01*
X403582190Y-48823428D01*
X403963142Y-48823428D01*
X404058380Y-48871047D01*
X404106000Y-48918666D01*
X404153619Y-49013904D01*
X404153619Y-49204380D01*
X404106000Y-49299619D01*
X404058380Y-49347238D01*
X403963142Y-49394857D01*
X403725047Y-49394857D01*
X403629809Y-49347238D01*
X403582190Y-49299619D01*
X403534571Y-49204380D01*
X403534571Y-49013904D01*
X403582190Y-48918666D01*
X403629809Y-48871047D01*
X403725047Y-48823428D01*
X404153619Y-48537714D02*
X403153619Y-48204380D01*
X404153619Y-47871047D01*
X403439333Y-47585333D02*
X403439333Y-47109142D01*
X403153619Y-47680571D02*
X404153619Y-47347238D01*
X403153619Y-47013904D01*
X403248857Y-46109142D02*
X403201238Y-46156761D01*
X403153619Y-46299619D01*
X403153619Y-46394857D01*
X403201238Y-46537714D01*
X403296476Y-46632952D01*
X403391714Y-46680571D01*
X403582190Y-46728190D01*
X403725047Y-46728190D01*
X403915523Y-46680571D01*
X404010761Y-46632952D01*
X404106000Y-46537714D01*
X404153619Y-46394857D01*
X404153619Y-46299619D01*
X404106000Y-46156761D01*
X404058380Y-46109142D01*
X407598571Y-48355142D02*
X407598571Y-47593238D01*
X407217619Y-47974190D02*
X407979523Y-47974190D01*
X408217619Y-46640857D02*
X408217619Y-47117047D01*
X407741428Y-47164666D01*
X407789047Y-47117047D01*
X407836666Y-47021809D01*
X407836666Y-46783714D01*
X407789047Y-46688476D01*
X407741428Y-46640857D01*
X407646190Y-46593238D01*
X407408095Y-46593238D01*
X407312857Y-46640857D01*
X407265238Y-46688476D01*
X407217619Y-46783714D01*
X407217619Y-47021809D01*
X407265238Y-47117047D01*
X407312857Y-47164666D01*
X411980000Y-48513904D02*
X412027619Y-48609142D01*
X412027619Y-48752000D01*
X411980000Y-48894857D01*
X411884761Y-48990095D01*
X411789523Y-49037714D01*
X411599047Y-49085333D01*
X411456190Y-49085333D01*
X411265714Y-49037714D01*
X411170476Y-48990095D01*
X411075238Y-48894857D01*
X411027619Y-48752000D01*
X411027619Y-48656761D01*
X411075238Y-48513904D01*
X411122857Y-48466285D01*
X411456190Y-48466285D01*
X411456190Y-48656761D01*
X411027619Y-48037714D02*
X412027619Y-48037714D01*
X411027619Y-47466285D01*
X412027619Y-47466285D01*
X411027619Y-46990095D02*
X412027619Y-46990095D01*
X412027619Y-46752000D01*
X411980000Y-46609142D01*
X411884761Y-46513904D01*
X411789523Y-46466285D01*
X411599047Y-46418666D01*
X411456190Y-46418666D01*
X411265714Y-46466285D01*
X411170476Y-46513904D01*
X411075238Y-46609142D01*
X411027619Y-46752000D01*
X411027619Y-46990095D01*
X305109619Y-51490380D02*
X305585809Y-51823714D01*
X305109619Y-52061809D02*
X306109619Y-52061809D01*
X306109619Y-51680857D01*
X306062000Y-51585619D01*
X306014380Y-51538000D01*
X305919142Y-51490380D01*
X305776285Y-51490380D01*
X305681047Y-51538000D01*
X305633428Y-51585619D01*
X305585809Y-51680857D01*
X305585809Y-52061809D01*
X305633428Y-51061809D02*
X305633428Y-50728476D01*
X305109619Y-50585619D02*
X305109619Y-51061809D01*
X306109619Y-51061809D01*
X306109619Y-50585619D01*
X305157238Y-50204666D02*
X305109619Y-50061809D01*
X305109619Y-49823714D01*
X305157238Y-49728476D01*
X305204857Y-49680857D01*
X305300095Y-49633238D01*
X305395333Y-49633238D01*
X305490571Y-49680857D01*
X305538190Y-49728476D01*
X305585809Y-49823714D01*
X305633428Y-50014190D01*
X305681047Y-50109428D01*
X305728666Y-50157047D01*
X305823904Y-50204666D01*
X305919142Y-50204666D01*
X306014380Y-50157047D01*
X306062000Y-50109428D01*
X306109619Y-50014190D01*
X306109619Y-49776095D01*
X306062000Y-49633238D01*
X305633428Y-49204666D02*
X305633428Y-48871333D01*
X305109619Y-48728476D02*
X305109619Y-49204666D01*
X306109619Y-49204666D01*
X306109619Y-48728476D01*
X306109619Y-48442761D02*
X306109619Y-47871333D01*
X305109619Y-48157047D02*
X306109619Y-48157047D01*
X300029619Y-52046000D02*
X301029619Y-52046000D01*
X301029619Y-51807904D01*
X300982000Y-51665047D01*
X300886761Y-51569809D01*
X300791523Y-51522190D01*
X300601047Y-51474571D01*
X300458190Y-51474571D01*
X300267714Y-51522190D01*
X300172476Y-51569809D01*
X300077238Y-51665047D01*
X300029619Y-51807904D01*
X300029619Y-52046000D01*
X300315333Y-51093619D02*
X300315333Y-50617428D01*
X300029619Y-51188857D02*
X301029619Y-50855523D01*
X300029619Y-50522190D01*
X301029619Y-50331714D02*
X301029619Y-49760285D01*
X300029619Y-50046000D02*
X301029619Y-50046000D01*
X300315333Y-49474571D02*
X300315333Y-48998380D01*
X300029619Y-49569809D02*
X301029619Y-49236476D01*
X300029619Y-48903142D01*
X297584857Y-51395238D02*
X297537238Y-51442857D01*
X297489619Y-51585714D01*
X297489619Y-51680952D01*
X297537238Y-51823809D01*
X297632476Y-51919047D01*
X297727714Y-51966666D01*
X297918190Y-52014285D01*
X298061047Y-52014285D01*
X298251523Y-51966666D01*
X298346761Y-51919047D01*
X298442000Y-51823809D01*
X298489619Y-51680952D01*
X298489619Y-51585714D01*
X298442000Y-51442857D01*
X298394380Y-51395238D01*
X297489619Y-50490476D02*
X297489619Y-50966666D01*
X298489619Y-50966666D01*
X297489619Y-50157142D02*
X298489619Y-50157142D01*
X297489619Y-49585714D02*
X298061047Y-50014285D01*
X298489619Y-49585714D02*
X297918190Y-50157142D01*
X295235333Y-51942857D02*
X295235333Y-51466666D01*
X294949619Y-52038095D02*
X295949619Y-51704761D01*
X294949619Y-51371428D01*
X295949619Y-51180952D02*
X295949619Y-50609523D01*
X294949619Y-50895238D02*
X295949619Y-50895238D01*
X294949619Y-50276190D02*
X295949619Y-50276190D01*
X294949619Y-49704761D01*
X295949619Y-49704761D01*
X289917238Y-52109523D02*
X289869619Y-51966666D01*
X289869619Y-51728571D01*
X289917238Y-51633333D01*
X289964857Y-51585714D01*
X290060095Y-51538095D01*
X290155333Y-51538095D01*
X290250571Y-51585714D01*
X290298190Y-51633333D01*
X290345809Y-51728571D01*
X290393428Y-51919047D01*
X290441047Y-52014285D01*
X290488666Y-52061904D01*
X290583904Y-52109523D01*
X290679142Y-52109523D01*
X290774380Y-52061904D01*
X290822000Y-52014285D01*
X290869619Y-51919047D01*
X290869619Y-51680952D01*
X290822000Y-51538095D01*
X289869619Y-50538095D02*
X290345809Y-50871428D01*
X289869619Y-51109523D02*
X290869619Y-51109523D01*
X290869619Y-50728571D01*
X290822000Y-50633333D01*
X290774380Y-50585714D01*
X290679142Y-50538095D01*
X290536285Y-50538095D01*
X290441047Y-50585714D01*
X290393428Y-50633333D01*
X290345809Y-50728571D01*
X290345809Y-51109523D01*
X289774380Y-49442857D02*
X289822000Y-49538095D01*
X289917238Y-49633333D01*
X290060095Y-49776190D01*
X290107714Y-49871428D01*
X290107714Y-49966666D01*
X289869619Y-49919047D02*
X289917238Y-50014285D01*
X290012476Y-50109523D01*
X290202952Y-50157142D01*
X290536285Y-50157142D01*
X290726761Y-50109523D01*
X290822000Y-50014285D01*
X290869619Y-49919047D01*
X290869619Y-49728571D01*
X290822000Y-49633333D01*
X290726761Y-49538095D01*
X290536285Y-49490476D01*
X290202952Y-49490476D01*
X290012476Y-49538095D01*
X289917238Y-49633333D01*
X289869619Y-49728571D01*
X289869619Y-49919047D01*
X293362000Y-51561904D02*
X293409619Y-51657142D01*
X293409619Y-51800000D01*
X293362000Y-51942857D01*
X293266761Y-52038095D01*
X293171523Y-52085714D01*
X292981047Y-52133333D01*
X292838190Y-52133333D01*
X292647714Y-52085714D01*
X292552476Y-52038095D01*
X292457238Y-51942857D01*
X292409619Y-51800000D01*
X292409619Y-51704761D01*
X292457238Y-51561904D01*
X292504857Y-51514285D01*
X292838190Y-51514285D01*
X292838190Y-51704761D01*
X292409619Y-51085714D02*
X293409619Y-51085714D01*
X292409619Y-50514285D01*
X293409619Y-50514285D01*
X292409619Y-50038095D02*
X293409619Y-50038095D01*
X293409619Y-49800000D01*
X293362000Y-49657142D01*
X293266761Y-49561904D01*
X293171523Y-49514285D01*
X292981047Y-49466666D01*
X292838190Y-49466666D01*
X292647714Y-49514285D01*
X292552476Y-49561904D01*
X292457238Y-49657142D01*
X292409619Y-49800000D01*
X292409619Y-50038095D01*
X249483619Y-45188000D02*
X250483619Y-45188000D01*
X250483619Y-44949904D01*
X250436000Y-44807047D01*
X250340761Y-44711809D01*
X250245523Y-44664190D01*
X250055047Y-44616571D01*
X249912190Y-44616571D01*
X249721714Y-44664190D01*
X249626476Y-44711809D01*
X249531238Y-44807047D01*
X249483619Y-44949904D01*
X249483619Y-45188000D01*
X249769333Y-44235619D02*
X249769333Y-43759428D01*
X249483619Y-44330857D02*
X250483619Y-43997523D01*
X249483619Y-43664190D01*
X250483619Y-43473714D02*
X250483619Y-42902285D01*
X249483619Y-43188000D02*
X250483619Y-43188000D01*
X249769333Y-42616571D02*
X249769333Y-42140380D01*
X249483619Y-42711809D02*
X250483619Y-42378476D01*
X249483619Y-42045142D01*
X247038857Y-47331238D02*
X246991238Y-47378857D01*
X246943619Y-47521714D01*
X246943619Y-47616952D01*
X246991238Y-47759809D01*
X247086476Y-47855047D01*
X247181714Y-47902666D01*
X247372190Y-47950285D01*
X247515047Y-47950285D01*
X247705523Y-47902666D01*
X247800761Y-47855047D01*
X247896000Y-47759809D01*
X247943619Y-47616952D01*
X247943619Y-47521714D01*
X247896000Y-47378857D01*
X247848380Y-47331238D01*
X246943619Y-46426476D02*
X246943619Y-46902666D01*
X247943619Y-46902666D01*
X246943619Y-46093142D02*
X247943619Y-46093142D01*
X246943619Y-45521714D02*
X247515047Y-45950285D01*
X247943619Y-45521714D02*
X247372190Y-46093142D01*
X242387428Y-59904000D02*
X242387428Y-59570666D01*
X241863619Y-59427809D02*
X241863619Y-59904000D01*
X242863619Y-59904000D01*
X242863619Y-59427809D01*
X242863619Y-59094476D02*
X241863619Y-58427809D01*
X242863619Y-58427809D02*
X241863619Y-59094476D01*
X242863619Y-58189714D02*
X242863619Y-57618285D01*
X241863619Y-57904000D02*
X242863619Y-57904000D01*
X241863619Y-56713523D02*
X242339809Y-57046857D01*
X241863619Y-57284952D02*
X242863619Y-57284952D01*
X242863619Y-56904000D01*
X242816000Y-56808761D01*
X242768380Y-56761142D01*
X242673142Y-56713523D01*
X242530285Y-56713523D01*
X242435047Y-56761142D01*
X242387428Y-56808761D01*
X242339809Y-56904000D01*
X242339809Y-57284952D01*
X242387428Y-56284952D02*
X242387428Y-55951619D01*
X241863619Y-55808761D02*
X241863619Y-56284952D01*
X242863619Y-56284952D01*
X242863619Y-55808761D01*
X241911238Y-55427809D02*
X241863619Y-55284952D01*
X241863619Y-55046857D01*
X241911238Y-54951619D01*
X241958857Y-54904000D01*
X242054095Y-54856380D01*
X242149333Y-54856380D01*
X242244571Y-54904000D01*
X242292190Y-54951619D01*
X242339809Y-55046857D01*
X242387428Y-55237333D01*
X242435047Y-55332571D01*
X242482666Y-55380190D01*
X242577904Y-55427809D01*
X242673142Y-55427809D01*
X242768380Y-55380190D01*
X242816000Y-55332571D01*
X242863619Y-55237333D01*
X242863619Y-54999238D01*
X242816000Y-54856380D01*
X242403333Y-45338857D02*
X242403333Y-44862666D01*
X242117619Y-45434095D02*
X243117619Y-45100761D01*
X242117619Y-44767428D01*
X243117619Y-44576952D02*
X243117619Y-44005523D01*
X242117619Y-44291238D02*
X243117619Y-44291238D01*
X242117619Y-43672190D02*
X243117619Y-43672190D01*
X242117619Y-43100761D01*
X243117619Y-43100761D01*
X237990000Y-47497904D02*
X238037619Y-47593142D01*
X238037619Y-47736000D01*
X237990000Y-47878857D01*
X237894761Y-47974095D01*
X237799523Y-48021714D01*
X237609047Y-48069333D01*
X237466190Y-48069333D01*
X237275714Y-48021714D01*
X237180476Y-47974095D01*
X237085238Y-47878857D01*
X237037619Y-47736000D01*
X237037619Y-47640761D01*
X237085238Y-47497904D01*
X237132857Y-47450285D01*
X237466190Y-47450285D01*
X237466190Y-47640761D01*
X237037619Y-47021714D02*
X238037619Y-47021714D01*
X237037619Y-46450285D01*
X238037619Y-46450285D01*
X237037619Y-45974095D02*
X238037619Y-45974095D01*
X238037619Y-45736000D01*
X237990000Y-45593142D01*
X237894761Y-45497904D01*
X237799523Y-45450285D01*
X237609047Y-45402666D01*
X237466190Y-45402666D01*
X237275714Y-45450285D01*
X237180476Y-45497904D01*
X237085238Y-45593142D01*
X237037619Y-45736000D01*
X237037619Y-45974095D01*
X234494438Y-45403923D02*
X234446819Y-45261066D01*
X234446819Y-45022971D01*
X234494438Y-44927733D01*
X234542057Y-44880114D01*
X234637295Y-44832495D01*
X234732533Y-44832495D01*
X234827771Y-44880114D01*
X234875390Y-44927733D01*
X234923009Y-45022971D01*
X234970628Y-45213447D01*
X235018247Y-45308685D01*
X235065866Y-45356304D01*
X235161104Y-45403923D01*
X235256342Y-45403923D01*
X235351580Y-45356304D01*
X235399200Y-45308685D01*
X235446819Y-45213447D01*
X235446819Y-44975352D01*
X235399200Y-44832495D01*
X234446819Y-43832495D02*
X234923009Y-44165828D01*
X234446819Y-44403923D02*
X235446819Y-44403923D01*
X235446819Y-44022971D01*
X235399200Y-43927733D01*
X235351580Y-43880114D01*
X235256342Y-43832495D01*
X235113485Y-43832495D01*
X235018247Y-43880114D01*
X234970628Y-43927733D01*
X234923009Y-44022971D01*
X234923009Y-44403923D01*
X234351580Y-42737257D02*
X234399200Y-42832495D01*
X234494438Y-42927733D01*
X234637295Y-43070590D01*
X234684914Y-43165828D01*
X234684914Y-43261066D01*
X234446819Y-43213447D02*
X234494438Y-43308685D01*
X234589676Y-43403923D01*
X234780152Y-43451542D01*
X235113485Y-43451542D01*
X235303961Y-43403923D01*
X235399200Y-43308685D01*
X235446819Y-43213447D01*
X235446819Y-43022971D01*
X235399200Y-42927733D01*
X235303961Y-42832495D01*
X235113485Y-42784876D01*
X234780152Y-42784876D01*
X234589676Y-42832495D01*
X234494438Y-42927733D01*
X234446819Y-43022971D01*
X234446819Y-43213447D01*
X227290333Y-56697285D02*
X227290333Y-56221095D01*
X227004619Y-56792523D02*
X228004619Y-56459190D01*
X227004619Y-56125857D01*
X227671285Y-55363952D02*
X227004619Y-55363952D01*
X227671285Y-55792523D02*
X227147476Y-55792523D01*
X227052238Y-55744904D01*
X227004619Y-55649666D01*
X227004619Y-55506809D01*
X227052238Y-55411571D01*
X227099857Y-55363952D01*
X227004619Y-54459190D02*
X228004619Y-54459190D01*
X227052238Y-54459190D02*
X227004619Y-54554428D01*
X227004619Y-54744904D01*
X227052238Y-54840142D01*
X227099857Y-54887761D01*
X227195095Y-54935380D01*
X227480809Y-54935380D01*
X227576047Y-54887761D01*
X227623666Y-54840142D01*
X227671285Y-54744904D01*
X227671285Y-54554428D01*
X227623666Y-54459190D01*
X227004619Y-53221095D02*
X227671285Y-53221095D01*
X228004619Y-53221095D02*
X227957000Y-53268714D01*
X227909380Y-53221095D01*
X227957000Y-53173476D01*
X228004619Y-53221095D01*
X227909380Y-53221095D01*
X227671285Y-52744904D02*
X227004619Y-52744904D01*
X227576047Y-52744904D02*
X227623666Y-52697285D01*
X227671285Y-52602047D01*
X227671285Y-52459190D01*
X227623666Y-52363952D01*
X227528428Y-52316333D01*
X227004619Y-52316333D01*
X229703333Y-45513285D02*
X229703333Y-45037095D01*
X229417619Y-45608523D02*
X230417619Y-45275190D01*
X229417619Y-44941857D01*
X230084285Y-44179952D02*
X229417619Y-44179952D01*
X230084285Y-44608523D02*
X229560476Y-44608523D01*
X229465238Y-44560904D01*
X229417619Y-44465666D01*
X229417619Y-44322809D01*
X229465238Y-44227571D01*
X229512857Y-44179952D01*
X229417619Y-43275190D02*
X230417619Y-43275190D01*
X229465238Y-43275190D02*
X229417619Y-43370428D01*
X229417619Y-43560904D01*
X229465238Y-43656142D01*
X229512857Y-43703761D01*
X229608095Y-43751380D01*
X229893809Y-43751380D01*
X229989047Y-43703761D01*
X230036666Y-43656142D01*
X230084285Y-43560904D01*
X230084285Y-43370428D01*
X230036666Y-43275190D01*
X229417619Y-41894238D02*
X229465238Y-41989476D01*
X229512857Y-42037095D01*
X229608095Y-42084714D01*
X229893809Y-42084714D01*
X229989047Y-42037095D01*
X230036666Y-41989476D01*
X230084285Y-41894238D01*
X230084285Y-41751380D01*
X230036666Y-41656142D01*
X229989047Y-41608523D01*
X229893809Y-41560904D01*
X229608095Y-41560904D01*
X229512857Y-41608523D01*
X229465238Y-41656142D01*
X229417619Y-41751380D01*
X229417619Y-41894238D01*
X230084285Y-40703761D02*
X229417619Y-40703761D01*
X230084285Y-41132333D02*
X229560476Y-41132333D01*
X229465238Y-41084714D01*
X229417619Y-40989476D01*
X229417619Y-40846619D01*
X229465238Y-40751380D01*
X229512857Y-40703761D01*
X230084285Y-40370428D02*
X230084285Y-39989476D01*
X230417619Y-40227571D02*
X229560476Y-40227571D01*
X229465238Y-40179952D01*
X229417619Y-40084714D01*
X229417619Y-39989476D01*
X222273857Y-59046809D02*
X222226238Y-59094428D01*
X222178619Y-59237285D01*
X222178619Y-59332523D01*
X222226238Y-59475380D01*
X222321476Y-59570619D01*
X222416714Y-59618238D01*
X222607190Y-59665857D01*
X222750047Y-59665857D01*
X222940523Y-59618238D01*
X223035761Y-59570619D01*
X223131000Y-59475380D01*
X223178619Y-59332523D01*
X223178619Y-59237285D01*
X223131000Y-59094428D01*
X223083380Y-59046809D01*
X222178619Y-58618238D02*
X223178619Y-58618238D01*
X222178619Y-58189666D02*
X222702428Y-58189666D01*
X222797666Y-58237285D01*
X222845285Y-58332523D01*
X222845285Y-58475380D01*
X222797666Y-58570619D01*
X222750047Y-58618238D01*
X222178619Y-57713476D02*
X222845285Y-57713476D01*
X222654809Y-57713476D02*
X222750047Y-57665857D01*
X222797666Y-57618238D01*
X222845285Y-57523000D01*
X222845285Y-57427761D01*
X222178619Y-56951571D02*
X222226238Y-57046809D01*
X222273857Y-57094428D01*
X222369095Y-57142047D01*
X222654809Y-57142047D01*
X222750047Y-57094428D01*
X222797666Y-57046809D01*
X222845285Y-56951571D01*
X222845285Y-56808714D01*
X222797666Y-56713476D01*
X222750047Y-56665857D01*
X222654809Y-56618238D01*
X222369095Y-56618238D01*
X222273857Y-56665857D01*
X222226238Y-56713476D01*
X222178619Y-56808714D01*
X222178619Y-56951571D01*
X222178619Y-56189666D02*
X222845285Y-56189666D01*
X222750047Y-56189666D02*
X222797666Y-56142047D01*
X222845285Y-56046809D01*
X222845285Y-55903952D01*
X222797666Y-55808714D01*
X222702428Y-55761095D01*
X222178619Y-55761095D01*
X222702428Y-55761095D02*
X222797666Y-55713476D01*
X222845285Y-55618238D01*
X222845285Y-55475380D01*
X222797666Y-55380142D01*
X222702428Y-55332523D01*
X222178619Y-55332523D01*
X222178619Y-54427761D02*
X222702428Y-54427761D01*
X222797666Y-54475380D01*
X222845285Y-54570619D01*
X222845285Y-54761095D01*
X222797666Y-54856333D01*
X222226238Y-54427761D02*
X222178619Y-54523000D01*
X222178619Y-54761095D01*
X222226238Y-54856333D01*
X222321476Y-54903952D01*
X222416714Y-54903952D01*
X222511952Y-54856333D01*
X222559571Y-54761095D01*
X222559571Y-54523000D01*
X222607190Y-54427761D01*
X214304619Y-56935523D02*
X215304619Y-56935523D01*
X214304619Y-56364095D01*
X215304619Y-56364095D01*
X215352238Y-55173619D02*
X214066523Y-56030761D01*
X214399857Y-54268857D02*
X214352238Y-54316476D01*
X214304619Y-54459333D01*
X214304619Y-54554571D01*
X214352238Y-54697428D01*
X214447476Y-54792666D01*
X214542714Y-54840285D01*
X214733190Y-54887904D01*
X214876047Y-54887904D01*
X215066523Y-54840285D01*
X215161761Y-54792666D01*
X215257000Y-54697428D01*
X215304619Y-54554571D01*
X215304619Y-54459333D01*
X215257000Y-54316476D01*
X215209380Y-54268857D01*
X214479238Y-45727476D02*
X214431619Y-45584619D01*
X214431619Y-45346523D01*
X214479238Y-45251285D01*
X214526857Y-45203666D01*
X214622095Y-45156047D01*
X214717333Y-45156047D01*
X214812571Y-45203666D01*
X214860190Y-45251285D01*
X214907809Y-45346523D01*
X214955428Y-45537000D01*
X215003047Y-45632238D01*
X215050666Y-45679857D01*
X215145904Y-45727476D01*
X215241142Y-45727476D01*
X215336380Y-45679857D01*
X215384000Y-45632238D01*
X215431619Y-45537000D01*
X215431619Y-45298904D01*
X215384000Y-45156047D01*
X215098285Y-44822714D02*
X214431619Y-44584619D01*
X215098285Y-44346523D02*
X214431619Y-44584619D01*
X214193523Y-44679857D01*
X214145904Y-44727476D01*
X214098285Y-44822714D01*
X215098285Y-43965571D02*
X214431619Y-43965571D01*
X215003047Y-43965571D02*
X215050666Y-43917952D01*
X215098285Y-43822714D01*
X215098285Y-43679857D01*
X215050666Y-43584619D01*
X214955428Y-43537000D01*
X214431619Y-43537000D01*
X214479238Y-42632238D02*
X214431619Y-42727476D01*
X214431619Y-42917952D01*
X214479238Y-43013190D01*
X214526857Y-43060809D01*
X214622095Y-43108428D01*
X214907809Y-43108428D01*
X215003047Y-43060809D01*
X215050666Y-43013190D01*
X215098285Y-42917952D01*
X215098285Y-42727476D01*
X215050666Y-42632238D01*
X214812571Y-42203666D02*
X214812571Y-41441761D01*
X214431619Y-41822714D02*
X215193523Y-41822714D01*
X214431619Y-40489380D02*
X214431619Y-40965571D01*
X215431619Y-40965571D01*
X215098285Y-39727476D02*
X214431619Y-39727476D01*
X215098285Y-40156047D02*
X214574476Y-40156047D01*
X214479238Y-40108428D01*
X214431619Y-40013190D01*
X214431619Y-39870333D01*
X214479238Y-39775095D01*
X214526857Y-39727476D01*
X214431619Y-39251285D02*
X215098285Y-39251285D01*
X215003047Y-39251285D02*
X215050666Y-39203666D01*
X215098285Y-39108428D01*
X215098285Y-38965571D01*
X215050666Y-38870333D01*
X214955428Y-38822714D01*
X214431619Y-38822714D01*
X214955428Y-38822714D02*
X215050666Y-38775095D01*
X215098285Y-38679857D01*
X215098285Y-38537000D01*
X215050666Y-38441761D01*
X214955428Y-38394142D01*
X214431619Y-38394142D01*
X217066857Y-47108904D02*
X217019238Y-47156523D01*
X216971619Y-47299380D01*
X216971619Y-47394619D01*
X217019238Y-47537476D01*
X217114476Y-47632714D01*
X217209714Y-47680333D01*
X217400190Y-47727952D01*
X217543047Y-47727952D01*
X217733523Y-47680333D01*
X217828761Y-47632714D01*
X217924000Y-47537476D01*
X217971619Y-47394619D01*
X217971619Y-47299380D01*
X217924000Y-47156523D01*
X217876380Y-47108904D01*
X216971619Y-46537476D02*
X217019238Y-46632714D01*
X217066857Y-46680333D01*
X217162095Y-46727952D01*
X217447809Y-46727952D01*
X217543047Y-46680333D01*
X217590666Y-46632714D01*
X217638285Y-46537476D01*
X217638285Y-46394619D01*
X217590666Y-46299380D01*
X217543047Y-46251761D01*
X217447809Y-46204142D01*
X217162095Y-46204142D01*
X217066857Y-46251761D01*
X217019238Y-46299380D01*
X216971619Y-46394619D01*
X216971619Y-46537476D01*
X216971619Y-45775571D02*
X217638285Y-45775571D01*
X217543047Y-45775571D02*
X217590666Y-45727952D01*
X217638285Y-45632714D01*
X217638285Y-45489857D01*
X217590666Y-45394619D01*
X217495428Y-45347000D01*
X216971619Y-45347000D01*
X217495428Y-45347000D02*
X217590666Y-45299380D01*
X217638285Y-45204142D01*
X217638285Y-45061285D01*
X217590666Y-44966047D01*
X217495428Y-44918428D01*
X216971619Y-44918428D01*
X217638285Y-44442238D02*
X216638285Y-44442238D01*
X217590666Y-44442238D02*
X217638285Y-44347000D01*
X217638285Y-44156523D01*
X217590666Y-44061285D01*
X217543047Y-44013666D01*
X217447809Y-43966047D01*
X217162095Y-43966047D01*
X217066857Y-44013666D01*
X217019238Y-44061285D01*
X216971619Y-44156523D01*
X216971619Y-44347000D01*
X217019238Y-44442238D01*
X222877000Y-44830904D02*
X222924619Y-44926142D01*
X222924619Y-45069000D01*
X222877000Y-45211857D01*
X222781761Y-45307095D01*
X222686523Y-45354714D01*
X222496047Y-45402333D01*
X222353190Y-45402333D01*
X222162714Y-45354714D01*
X222067476Y-45307095D01*
X221972238Y-45211857D01*
X221924619Y-45069000D01*
X221924619Y-44973761D01*
X221972238Y-44830904D01*
X222019857Y-44783285D01*
X222353190Y-44783285D01*
X222353190Y-44973761D01*
X221924619Y-44354714D02*
X222924619Y-44354714D01*
X221924619Y-43783285D01*
X222924619Y-43783285D01*
X221924619Y-43307095D02*
X222924619Y-43307095D01*
X222924619Y-43069000D01*
X222877000Y-42926142D01*
X222781761Y-42830904D01*
X222686523Y-42783285D01*
X222496047Y-42735666D01*
X222353190Y-42735666D01*
X222162714Y-42783285D01*
X222067476Y-42830904D01*
X221972238Y-42926142D01*
X221924619Y-43069000D01*
X221924619Y-43307095D01*
X229798571Y-56229142D02*
X229798571Y-55467238D01*
X229417619Y-55848190D02*
X230179523Y-55848190D01*
X230417619Y-54514857D02*
X230417619Y-54991047D01*
X229941428Y-55038666D01*
X229989047Y-54991047D01*
X230036666Y-54895809D01*
X230036666Y-54657714D01*
X229989047Y-54562476D01*
X229941428Y-54514857D01*
X229846190Y-54467238D01*
X229608095Y-54467238D01*
X229512857Y-54514857D01*
X229465238Y-54562476D01*
X229417619Y-54657714D01*
X229417619Y-54895809D01*
X229465238Y-54991047D01*
X229512857Y-55038666D01*
X133088000Y-52196904D02*
X133135619Y-52292142D01*
X133135619Y-52435000D01*
X133088000Y-52577857D01*
X132992761Y-52673095D01*
X132897523Y-52720714D01*
X132707047Y-52768333D01*
X132564190Y-52768333D01*
X132373714Y-52720714D01*
X132278476Y-52673095D01*
X132183238Y-52577857D01*
X132135619Y-52435000D01*
X132135619Y-52339761D01*
X132183238Y-52196904D01*
X132230857Y-52149285D01*
X132564190Y-52149285D01*
X132564190Y-52339761D01*
X132135619Y-51720714D02*
X133135619Y-51720714D01*
X132135619Y-51149285D01*
X133135619Y-51149285D01*
X132135619Y-50673095D02*
X133135619Y-50673095D01*
X133135619Y-50435000D01*
X133088000Y-50292142D01*
X132992761Y-50196904D01*
X132897523Y-50149285D01*
X132707047Y-50101666D01*
X132564190Y-50101666D01*
X132373714Y-50149285D01*
X132278476Y-50196904D01*
X132183238Y-50292142D01*
X132135619Y-50435000D01*
X132135619Y-50673095D01*
X133627857Y-43171904D02*
X133580238Y-43219523D01*
X133532619Y-43362380D01*
X133532619Y-43457619D01*
X133580238Y-43600476D01*
X133675476Y-43695714D01*
X133770714Y-43743333D01*
X133961190Y-43790952D01*
X134104047Y-43790952D01*
X134294523Y-43743333D01*
X134389761Y-43695714D01*
X134485000Y-43600476D01*
X134532619Y-43457619D01*
X134532619Y-43362380D01*
X134485000Y-43219523D01*
X134437380Y-43171904D01*
X133532619Y-42600476D02*
X133580238Y-42695714D01*
X133627857Y-42743333D01*
X133723095Y-42790952D01*
X134008809Y-42790952D01*
X134104047Y-42743333D01*
X134151666Y-42695714D01*
X134199285Y-42600476D01*
X134199285Y-42457619D01*
X134151666Y-42362380D01*
X134104047Y-42314761D01*
X134008809Y-42267142D01*
X133723095Y-42267142D01*
X133627857Y-42314761D01*
X133580238Y-42362380D01*
X133532619Y-42457619D01*
X133532619Y-42600476D01*
X133532619Y-41838571D02*
X134199285Y-41838571D01*
X134104047Y-41838571D02*
X134151666Y-41790952D01*
X134199285Y-41695714D01*
X134199285Y-41552857D01*
X134151666Y-41457619D01*
X134056428Y-41410000D01*
X133532619Y-41410000D01*
X134056428Y-41410000D02*
X134151666Y-41362380D01*
X134199285Y-41267142D01*
X134199285Y-41124285D01*
X134151666Y-41029047D01*
X134056428Y-40981428D01*
X133532619Y-40981428D01*
X134199285Y-40505238D02*
X133199285Y-40505238D01*
X134151666Y-40505238D02*
X134199285Y-40410000D01*
X134199285Y-40219523D01*
X134151666Y-40124285D01*
X134104047Y-40076666D01*
X134008809Y-40029047D01*
X133723095Y-40029047D01*
X133627857Y-40076666D01*
X133580238Y-40124285D01*
X133532619Y-40219523D01*
X133532619Y-40410000D01*
X133580238Y-40505238D01*
X140120619Y-43767333D02*
X139120619Y-43434000D01*
X140120619Y-43100666D01*
X136326619Y-43719714D02*
X137326619Y-43719714D01*
X136850428Y-43719714D02*
X136850428Y-43148285D01*
X136326619Y-43148285D02*
X137326619Y-43148285D01*
X130294000Y-52196904D02*
X130341619Y-52292142D01*
X130341619Y-52435000D01*
X130294000Y-52577857D01*
X130198761Y-52673095D01*
X130103523Y-52720714D01*
X129913047Y-52768333D01*
X129770190Y-52768333D01*
X129579714Y-52720714D01*
X129484476Y-52673095D01*
X129389238Y-52577857D01*
X129341619Y-52435000D01*
X129341619Y-52339761D01*
X129389238Y-52196904D01*
X129436857Y-52149285D01*
X129770190Y-52149285D01*
X129770190Y-52339761D01*
X129341619Y-51720714D02*
X130341619Y-51720714D01*
X129341619Y-51149285D01*
X130341619Y-51149285D01*
X129341619Y-50673095D02*
X130341619Y-50673095D01*
X130341619Y-50435000D01*
X130294000Y-50292142D01*
X130198761Y-50196904D01*
X130103523Y-50149285D01*
X129913047Y-50101666D01*
X129770190Y-50101666D01*
X129579714Y-50149285D01*
X129484476Y-50196904D01*
X129389238Y-50292142D01*
X129341619Y-50435000D01*
X129341619Y-50673095D01*
X140914428Y-50347571D02*
X140866809Y-50204714D01*
X140819190Y-50157095D01*
X140723952Y-50109476D01*
X140581095Y-50109476D01*
X140485857Y-50157095D01*
X140438238Y-50204714D01*
X140390619Y-50299952D01*
X140390619Y-50680904D01*
X141390619Y-50680904D01*
X141390619Y-50347571D01*
X141343000Y-50252333D01*
X141295380Y-50204714D01*
X141200142Y-50157095D01*
X141104904Y-50157095D01*
X141009666Y-50204714D01*
X140962047Y-50252333D01*
X140914428Y-50347571D01*
X140914428Y-50680904D01*
X138676000Y-50157095D02*
X138723619Y-50252333D01*
X138723619Y-50395190D01*
X138676000Y-50538047D01*
X138580761Y-50633285D01*
X138485523Y-50680904D01*
X138295047Y-50728523D01*
X138152190Y-50728523D01*
X137961714Y-50680904D01*
X137866476Y-50633285D01*
X137771238Y-50538047D01*
X137723619Y-50395190D01*
X137723619Y-50299952D01*
X137771238Y-50157095D01*
X137818857Y-50109476D01*
X138152190Y-50109476D01*
X138152190Y-50299952D01*
X131643380Y-43561000D02*
X130643380Y-43561000D01*
X134802619Y-50109476D02*
X135278809Y-50442809D01*
X134802619Y-50680904D02*
X135802619Y-50680904D01*
X135802619Y-50299952D01*
X135755000Y-50204714D01*
X135707380Y-50157095D01*
X135612142Y-50109476D01*
X135469285Y-50109476D01*
X135374047Y-50157095D01*
X135326428Y-50204714D01*
X135278809Y-50299952D01*
X135278809Y-50680904D01*
X432688904Y-61222000D02*
X432784142Y-61174380D01*
X432927000Y-61174380D01*
X433069857Y-61222000D01*
X433165095Y-61317238D01*
X433212714Y-61412476D01*
X433260333Y-61602952D01*
X433260333Y-61745809D01*
X433212714Y-61936285D01*
X433165095Y-62031523D01*
X433069857Y-62126761D01*
X432927000Y-62174380D01*
X432831761Y-62174380D01*
X432688904Y-62126761D01*
X432641285Y-62079142D01*
X432641285Y-61745809D01*
X432831761Y-61745809D01*
X432212714Y-62174380D02*
X432212714Y-61174380D01*
X431641285Y-62174380D01*
X431641285Y-61174380D01*
X431165095Y-62174380D02*
X431165095Y-61174380D01*
X430927000Y-61174380D01*
X430784142Y-61222000D01*
X430688904Y-61317238D01*
X430641285Y-61412476D01*
X430593666Y-61602952D01*
X430593666Y-61745809D01*
X430641285Y-61936285D01*
X430688904Y-62031523D01*
X430784142Y-62126761D01*
X430927000Y-62174380D01*
X431165095Y-62174380D01*
X424179904Y-78875000D02*
X424275142Y-78827380D01*
X424418000Y-78827380D01*
X424560857Y-78875000D01*
X424656095Y-78970238D01*
X424703714Y-79065476D01*
X424751333Y-79255952D01*
X424751333Y-79398809D01*
X424703714Y-79589285D01*
X424656095Y-79684523D01*
X424560857Y-79779761D01*
X424418000Y-79827380D01*
X424322761Y-79827380D01*
X424179904Y-79779761D01*
X424132285Y-79732142D01*
X424132285Y-79398809D01*
X424322761Y-79398809D01*
X423703714Y-79827380D02*
X423703714Y-78827380D01*
X423132285Y-79827380D01*
X423132285Y-78827380D01*
X422656095Y-79827380D02*
X422656095Y-78827380D01*
X422418000Y-78827380D01*
X422275142Y-78875000D01*
X422179904Y-78970238D01*
X422132285Y-79065476D01*
X422084666Y-79255952D01*
X422084666Y-79398809D01*
X422132285Y-79589285D01*
X422179904Y-79684523D01*
X422275142Y-79779761D01*
X422418000Y-79827380D01*
X422656095Y-79827380D01*
X423941714Y-73350428D02*
X423179809Y-73350428D01*
X423560761Y-73731380D02*
X423560761Y-72969476D01*
X422227428Y-72731380D02*
X422703619Y-72731380D01*
X422751238Y-73207571D01*
X422703619Y-73159952D01*
X422608380Y-73112333D01*
X422370285Y-73112333D01*
X422275047Y-73159952D01*
X422227428Y-73207571D01*
X422179809Y-73302809D01*
X422179809Y-73540904D01*
X422227428Y-73636142D01*
X422275047Y-73683761D01*
X422370285Y-73731380D01*
X422608380Y-73731380D01*
X422703619Y-73683761D01*
X422751238Y-73636142D01*
X421894095Y-72731380D02*
X421560761Y-73731380D01*
X421227428Y-72731380D01*
X425981619Y-68905380D02*
X425791142Y-68905380D01*
X425695904Y-68857761D01*
X425648285Y-68810142D01*
X425553047Y-68667285D01*
X425505428Y-68476809D01*
X425505428Y-68095857D01*
X425553047Y-68000619D01*
X425600666Y-67953000D01*
X425695904Y-67905380D01*
X425886380Y-67905380D01*
X425981619Y-67953000D01*
X426029238Y-68000619D01*
X426076857Y-68095857D01*
X426076857Y-68333952D01*
X426029238Y-68429190D01*
X425981619Y-68476809D01*
X425886380Y-68524428D01*
X425695904Y-68524428D01*
X425600666Y-68476809D01*
X425553047Y-68429190D01*
X425505428Y-68333952D01*
X425219714Y-67905380D02*
X424886380Y-68905380D01*
X424553047Y-67905380D01*
X424267333Y-68619666D02*
X423791142Y-68619666D01*
X424362571Y-68905380D02*
X424029238Y-67905380D01*
X423695904Y-68905380D01*
X422791142Y-68810142D02*
X422838761Y-68857761D01*
X422981619Y-68905380D01*
X423076857Y-68905380D01*
X423219714Y-68857761D01*
X423314952Y-68762523D01*
X423362571Y-68667285D01*
X423410190Y-68476809D01*
X423410190Y-68333952D01*
X423362571Y-68143476D01*
X423314952Y-68048238D01*
X423219714Y-67953000D01*
X423076857Y-67905380D01*
X422981619Y-67905380D01*
X422838761Y-67953000D01*
X422791142Y-68000619D01*
X421028619Y-62174380D02*
X420838142Y-62174380D01*
X420742904Y-62126761D01*
X420695285Y-62079142D01*
X420600047Y-61936285D01*
X420552428Y-61745809D01*
X420552428Y-61364857D01*
X420600047Y-61269619D01*
X420647666Y-61222000D01*
X420742904Y-61174380D01*
X420933380Y-61174380D01*
X421028619Y-61222000D01*
X421076238Y-61269619D01*
X421123857Y-61364857D01*
X421123857Y-61602952D01*
X421076238Y-61698190D01*
X421028619Y-61745809D01*
X420933380Y-61793428D01*
X420742904Y-61793428D01*
X420647666Y-61745809D01*
X420600047Y-61698190D01*
X420552428Y-61602952D01*
X420266714Y-61174380D02*
X419933380Y-62174380D01*
X419600047Y-61174380D01*
X419314333Y-61888666D02*
X418838142Y-61888666D01*
X419409571Y-62174380D02*
X419076238Y-61174380D01*
X418742904Y-62174380D01*
X417838142Y-62079142D02*
X417885761Y-62126761D01*
X418028619Y-62174380D01*
X418123857Y-62174380D01*
X418266714Y-62126761D01*
X418361952Y-62031523D01*
X418409571Y-61936285D01*
X418457190Y-61745809D01*
X418457190Y-61602952D01*
X418409571Y-61412476D01*
X418361952Y-61317238D01*
X418266714Y-61222000D01*
X418123857Y-61174380D01*
X418028619Y-61174380D01*
X417885761Y-61222000D01*
X417838142Y-61269619D01*
M02*
