G04 #@! TF.GenerationSoftware,KiCad,Pcbnew,(5.1.9)-1*
G04 #@! TF.CreationDate,2021-03-22T16:11:12+01:00*
G04 #@! TF.ProjectId,Open128,4f70656e-3132-4382-9e6b-696361645f70,3*
G04 #@! TF.SameCoordinates,Original*
G04 #@! TF.FileFunction,Profile,NP*
%FSLAX46Y46*%
G04 Gerber Fmt 4.6, Leading zero omitted, Abs format (unit mm)*
G04 Created by KiCad (PCBNEW (5.1.9)-1) date 2021-03-22 16:11:12*
%MOMM*%
%LPD*%
G01*
G04 APERTURE LIST*
G04 #@! TA.AperFunction,Profile*
%ADD10C,0.050000*%
G04 #@! TD*
G04 APERTURE END LIST*
D10*
X436725000Y-283083000D02*
G75*
G03*
X436725000Y-283083000I-1750000J0D01*
G01*
X39469000Y-283111000D02*
G75*
G03*
X39469000Y-283111000I-1750000J0D01*
G01*
X35763200Y-199669400D02*
G75*
G02*
X35763200Y-203225400I25400J-1778000D01*
G01*
X294843200Y-35839400D02*
X294462200Y-35458400D01*
X285953200Y-35839400D02*
X286334200Y-35458400D01*
X284683200Y-35839400D02*
X284302200Y-35458400D01*
X267716000Y-35839400D02*
X268097000Y-35458400D01*
X275996400Y-217881200D02*
X273100800Y-217881200D01*
X273100800Y-205740000D02*
X275996400Y-205740000D01*
X275996400Y-205740000D02*
G75*
G02*
X275996400Y-217881200I0J-6070600D01*
G01*
X273100800Y-217881200D02*
G75*
G02*
X273100800Y-205740000I0J6070600D01*
G01*
X242569874Y-149174201D02*
X242570001Y-158724601D01*
X242569874Y-149174201D02*
G75*
G02*
X245135399Y-146634201I2540126J1D01*
G01*
X245110001Y-161290126D02*
G75*
G02*
X242570001Y-158724601I-1J2540126D01*
G01*
X259715126Y-158749999D02*
G75*
G02*
X257149601Y-161289999I-2540126J-1D01*
G01*
X257174999Y-146634074D02*
G75*
G02*
X259714999Y-149199599I1J-2540126D01*
G01*
X259714999Y-149199599D02*
X259715126Y-158749999D01*
X245135399Y-146634201D02*
X257174999Y-146634074D01*
X257149601Y-161289999D02*
X245110001Y-161290126D01*
X102743000Y-35458400D02*
X103124000Y-35839400D01*
X97942400Y-35839400D02*
X98323400Y-35458400D01*
X96291400Y-35458400D02*
X96672400Y-35839400D01*
X62280800Y-35839400D02*
X62661800Y-35458400D01*
X60629800Y-35458400D02*
X61010800Y-35839400D01*
X51917600Y-35839400D02*
X52298600Y-35458400D01*
X286334200Y-35458400D02*
X294462200Y-35458400D01*
X285953200Y-45110400D02*
X285953200Y-35839400D01*
X284683200Y-45110400D02*
X285953200Y-45110400D01*
X284683200Y-35839400D02*
X284683200Y-45110400D01*
X32994600Y-95732600D02*
X32969200Y-54813200D01*
X34747200Y-95732600D02*
X32994600Y-95732600D01*
X34772600Y-100812600D02*
X34747200Y-95732600D01*
X33000000Y-100812600D02*
X34772600Y-100812600D01*
X33020000Y-141833600D02*
X33000000Y-100812600D01*
X34798000Y-141833600D02*
X33020000Y-141833600D01*
X34798000Y-146913600D02*
X34798000Y-141833600D01*
X33020000Y-146913600D02*
X34798000Y-146913600D01*
X33020000Y-199669400D02*
X33020000Y-146913600D01*
X35763200Y-199669400D02*
X33020000Y-199669400D01*
X33020000Y-203225400D02*
X35763200Y-203225400D01*
X33020000Y-217017600D02*
X33020000Y-203225400D01*
X34798000Y-217017600D02*
X33020000Y-217017600D01*
X34798000Y-222097600D02*
X34798000Y-217017600D01*
X33020000Y-222097600D02*
X34798000Y-222097600D01*
X33020000Y-246227600D02*
X33020000Y-222097600D01*
X34798000Y-246227600D02*
X33020000Y-246227600D01*
X34798000Y-251307600D02*
X34798000Y-246227600D01*
X33020000Y-251307600D02*
X34798000Y-251307600D01*
X33020000Y-288798000D02*
X33020000Y-251307600D01*
X113538000Y-288798000D02*
X33020000Y-288798000D01*
X113538000Y-287020000D02*
X113538000Y-288798000D01*
X118618000Y-287020000D02*
X113538000Y-287020000D01*
X118618000Y-288798000D02*
X118618000Y-287020000D01*
X193802000Y-288798000D02*
X118618000Y-288798000D01*
X193802000Y-287020000D02*
X193802000Y-288798000D01*
X198882000Y-287020000D02*
X193802000Y-287020000D01*
X198882000Y-288798000D02*
X198882000Y-287020000D01*
X273405600Y-288798000D02*
X198882000Y-288798000D01*
X273405600Y-287020000D02*
X273405600Y-288798000D01*
X278485600Y-287020000D02*
X273405600Y-287020000D01*
X278485600Y-288798000D02*
X278485600Y-287020000D01*
X353923600Y-288823400D02*
X278485600Y-288798000D01*
X353923600Y-287020000D02*
X353923600Y-288823400D01*
X359003600Y-287020000D02*
X353923600Y-287020000D01*
X359003600Y-288798000D02*
X359003600Y-287020000D01*
X439521600Y-288848800D02*
X359003600Y-288798000D01*
X439521600Y-271551400D02*
X439521600Y-288848800D01*
X428752000Y-271551400D02*
X439521600Y-271551400D01*
X428752000Y-257708400D02*
X428752000Y-271551400D01*
X437743600Y-257708400D02*
X428752000Y-257708400D01*
X437743600Y-252628400D02*
X437743600Y-257708400D01*
X439521600Y-252628400D02*
X437743600Y-252628400D01*
X439521600Y-200558400D02*
X439521600Y-252628400D01*
X437743600Y-200558400D02*
X439521600Y-200558400D01*
X437743600Y-195478400D02*
X437743600Y-200558400D01*
X439521600Y-195478400D02*
X437743600Y-195478400D01*
X439521600Y-127406400D02*
X439521600Y-195478400D01*
X437743600Y-127406400D02*
X439521600Y-127406400D01*
X437743600Y-122326400D02*
X437743600Y-127406400D01*
X439521600Y-122326400D02*
X437743600Y-122326400D01*
X439547000Y-55778400D02*
X439521600Y-122326400D01*
X426288200Y-55778400D02*
X439547000Y-55778400D01*
X426288200Y-35458400D02*
X426288200Y-55778400D01*
X386156200Y-35458400D02*
X426288200Y-35458400D01*
X386156200Y-63754000D02*
X386156200Y-35458400D01*
X382600200Y-63754000D02*
X386156200Y-63754000D01*
X382600200Y-53746400D02*
X382600200Y-63754000D01*
X319100200Y-53746400D02*
X382600200Y-53746400D01*
X319100200Y-63754000D02*
X319100200Y-53746400D01*
X315417200Y-63754000D02*
X319100200Y-63754000D01*
X315417200Y-35458400D02*
X315417200Y-63754000D01*
X307543200Y-35458400D02*
X315417200Y-35458400D01*
X307543200Y-46990000D02*
X307543200Y-35458400D01*
X294843200Y-46990000D02*
X307543200Y-46990000D01*
X294843200Y-35839400D02*
X294843200Y-46990000D01*
X268097000Y-35458400D02*
X284302200Y-35458400D01*
X267716000Y-46990000D02*
X267716000Y-35839400D01*
X255016000Y-46990000D02*
X267716000Y-46990000D01*
X255016000Y-35458400D02*
X255016000Y-46990000D01*
X116840000Y-35458400D02*
X255016000Y-35458400D01*
X116840000Y-46990000D02*
X116840000Y-35458400D01*
X103124000Y-46990000D02*
X116840000Y-46990000D01*
X103124000Y-35839400D02*
X103124000Y-46990000D01*
X98323400Y-35458400D02*
X102743000Y-35458400D01*
X97942400Y-45110400D02*
X97942400Y-35839400D01*
X96672400Y-45110400D02*
X97942400Y-45110400D01*
X96672400Y-35839400D02*
X96672400Y-45110400D01*
X62661800Y-35458400D02*
X96291400Y-35458400D01*
X62280800Y-45110400D02*
X62280800Y-35839400D01*
X61010800Y-45110400D02*
X62280800Y-45110400D01*
X61010800Y-35839400D02*
X61010800Y-45110400D01*
X52298600Y-35458400D02*
X60629800Y-35458400D01*
X51917600Y-46990000D02*
X51917600Y-35839400D01*
X40741600Y-46990000D02*
X51917600Y-46990000D01*
X32969200Y-54813200D02*
X40741600Y-46990000D01*
M02*
